<?xml version="1.0" encoding="utf-8"?>
<!-- Generator: Adobe Illustrator 27.5.0, SVG Export Plug-In . SVG Version: 6.00 Build 0)  -->
<svg version="1.1" id="Layer_1" xmlns="http://www.w3.org/2000/svg" xmlns:xlink="http://www.w3.org/1999/xlink" x="0px" y="0px"
	 viewBox="0 0 418.438 503.782" style="enable-background:new 0 0 418.438 503.782;" xml:space="preserve">
<g>
	<g>
		<g>
			<path style="fill:#EFB291;" d="M119.595,356.269c1.03,2.026,2.334,3.941,3.646,5.792c5.552,7.831,12.547,14.591,19.96,20.647
				c13.563,11.079,29.865,18.44,47.045,21.713c8.572,1.633,17.471,2.416,26.194,1.946c8.404-0.452,16.721-2.203,24.63-5.074
				c7.994-2.902,15.566-6.954,22.457-11.935c6.925-5.005,12.839-10.957,18.368-17.439c5.845-6.852,11.44-13.962,16.16-21.645
				c0.296-0.481,0.588-0.965,0.876-1.451c-11.494-5.928-39.973-15.3-46.006-28.087c-6.059-12.844-0.989-81.48-0.989-81.48h-83.434
				c0,0,5.616,74.083-3.688,83.387c-11.256,11.256-38.666,23.534-47.632,28.07C117.911,352.597,118.679,354.468,119.595,356.269z"/>
			<path style="opacity:0.64;fill:#EFB291;" d="M170.03,293.564c1.969,1.673,3.855,3.45,5.848,5.093
				c3.39,2.796,7.274,4.903,11.259,6.728c7.935,3.633,16.538,5.683,25.27,5.823c7.241,0.116,14.498-0.905,21.462-2.874
				c5.676-1.605,11.182-3.867,16.301-6.806c-1.005-24.749,1.767-62.272,1.767-62.272h-83.435
				C168.503,239.256,170.782,269.332,170.03,293.564z"/>
			<path style="opacity:0.64;fill:#EFB291;" d="M258.547,327.671c-0.248,2.563-0.573,5.117-1.002,7.657
				c-1.03,6.089-2.649,12.115-5.24,17.735c-2.497,5.417-5.949,10.361-10.441,14.309c-4.255,3.741-9.228,6.597-14.518,8.602
				c-5.386,2.041-11.098,3.197-16.843,3.551c-5.782,0.357-11.625-0.105-17.273-1.399c-5.552-1.272-11.017-3.354-15.845-6.4
				c-5.05-3.186-9.149-7.641-11.682-13.065c-3.07-6.574-4.039-13.86-4.832-20.996c-0.373-3.352-0.134-6.675-0.001-10.034
				c0.02-0.509,0.038-1.021,0.049-1.535c-12.74,10.218-35.681,20.542-43.736,24.618c0.728,1.884,1.496,3.755,2.412,5.556
				c1.03,2.026,2.334,3.941,3.646,5.792c5.552,7.831,12.547,14.591,19.96,20.647c13.563,11.079,29.865,18.44,47.045,21.713
				c8.572,1.633,17.471,2.416,26.194,1.946c8.405-0.452,16.722-2.203,24.63-5.074c7.994-2.902,15.566-6.954,22.457-11.935
				c6.925-5.005,12.839-10.957,18.368-17.439c5.845-6.852,11.439-13.962,16.16-21.645c0.296-0.481,0.588-0.965,0.876-1.451
				C289.628,344.024,269.195,336.968,258.547,327.671z"/>
			<path style="fill:#4D4D4F;" d="M412.161,496.225c-3.101-15.249-15.953-97.977-25.469-110.891
				c-10.113-13.724-89.705-41.302-121.743-56.605c0.359,1.128,0.673,2.271,0.934,3.426c1.143,5.066,1.388,10.319,0.922,15.485
				c-0.469,5.208-1.643,10.355-3.47,15.254c-1.756,4.708-4.11,9.221-7.145,13.236c-2.616,3.461-5.776,6.444-9.314,8.949
				c-3.68,2.606-7.72,4.681-11.919,6.31c-4.378,1.698-8.944,2.907-13.577,3.67c-2.701,0.445-5.427,0.737-8.16,0.881v-0.191
				c-1.437,0.131-2.877,0.223-4.318,0.266c-0.281,0.009-0.563,0.01-0.844,0.015c-0.281-0.005-0.563-0.006-0.844-0.015
				c-1.441-0.043-2.881-0.134-4.318-0.266v0.191c-2.734-0.144-5.46-0.436-8.16-0.881c-4.632-0.763-9.198-1.971-13.576-3.67
				c-4.2-1.629-8.239-3.704-11.919-6.31c-3.538-2.505-6.698-5.488-9.314-8.949c-3.034-4.014-5.388-8.527-7.145-13.236
				c-1.827-4.899-3.001-10.046-3.471-15.254c-0.465-5.165-0.221-10.419,0.922-15.485c0.261-1.155,0.574-2.298,0.934-3.426
				c-32.037,15.303-105.923,40.422-116.035,54.146c-8.858,12.022-24.033,89.922-28.854,113.35H412.161z"/>
			<path style="fill:#323234;" d="M257.317,323.668c0.583,7.819,1.159,32.208-12.372,47.477c-3.732,4.211-8.355,7.472-13.74,9.692
				c-6.38,2.63-14.04,3.9-22.762,3.781c-16.591-0.23-29.076-5.204-37.108-14.781c-12.35-14.726-11.845-35.333-11.114-44.012
				c-0.007,0.003,0.148-0.94,0.141-0.937c-5.79,2.275-11.577,4.536-17.237,7.12c-0.036,13.289,2.158,33.062,15.158,48.628
				c11.341,13.58,28.138,20.619,49.926,20.921c0.465,0.006,0.928,0.01,1.388,0.01c20.633,0,36.811-6.478,48.098-19.266
				c13.922-15.773,16.614-36.046,16.77-49.543C271.466,330.416,259.78,325.389,257.317,323.668z"/>
		</g>
		<path style="fill:#C4C6C8;" d="M92.543,496.225c-0.014-0.405-0.03-0.812-0.043-1.216c-0.095-2.829-0.16-5.659-0.219-8.489
			c-0.114-5.518-0.372-11.046-0.162-16.563c0.202-5.317,0.634-10.623,0.821-15.94c0.16-4.542,0.157-9.116-0.378-13.634
			c-0.649,4.593-1.417,9.169-2.131,13.752c-1.484,9.526-2.507,19.139-2.598,28.787c-0.042,4.438,0.089,8.872,0.287,13.304H92.543z"
			/>
		<path style="fill:#C4C6C8;" d="M329.86,496.225c0.014-0.405,0.03-0.812,0.043-1.216c0.095-2.829,0.16-5.659,0.219-8.489
			c0.114-5.518,0.372-11.046,0.162-16.563c-0.202-5.317-0.634-10.623-0.821-15.94c-0.16-4.542-0.156-9.116,0.378-13.634
			c0.649,4.593,1.417,9.169,2.131,13.752c1.484,9.526,2.508,19.139,2.598,28.787c0.042,4.438-0.089,8.872-0.287,13.304H329.86z"/>
	</g>
	<g>
		<g>
			<g>
				<path style="fill:#EFB291;" d="M327.131,200.456c-2.496-9.693-12.752-14.94-22.733-11.743
					c-5.709,1.829-10.032,6.851-12.563,11.866c-1.475,2.923-2.387,6.128-2.932,9.329c-2.295,5.681-3.529,11.97-3.399,18.007
					c0.092,4.276,0.336,12.11,4.839,14.617c4.391,2.445,11.645-0.954,15.538-3.007c4.941-2.606,9.084-6.384,12.499-10.633
					C324.808,220.894,329.769,210.703,327.131,200.456z"/>
				<path style="opacity:0.64;fill:#EB936D;" d="M295.054,243.335c0.712-2.122,1.396-4.253,2.043-6.396
					c2.582-8.544,4.665-17.28,5.751-26.147c0.873-7.132,1.125-14.42,0.173-21.558c-5.028,2.14-8.864,6.742-11.187,11.345
					c-1.475,2.923-2.387,6.128-2.932,9.329c-2.295,5.681-3.529,11.97-3.399,18.007c0.092,4.276,0.336,12.11,4.839,14.617
					C291.699,243.289,293.332,243.484,295.054,243.335z"/>
				<path style="opacity:0.65;fill:#92422B;" d="M322.442,200.562c-1.004-1.858-2.929-3.008-4.967-3.358
					c-4.691-0.805-9.676,2.315-12.799,5.544c-6.953,7.187-8.637,17.942-9.415,27.494c-0.046,0.559,0.791,0.204,0.867-0.184
					c0.3-1.533,0.603-3.09,0.929-4.654c0.139,1.135,0.368,2.253,0.599,3.256c0.455,1.97,1.594,3.749,3.743,3.953
					c5.188,0.494,9.049-5.558,11.71-9.003c0.25-0.324-0.272-0.441-0.479-0.222c-2.458,2.6-5.033,6.036-8.581,7.182
					c-2.856,0.922-4.019-1.168-4.687-3.519c-0.55-1.938-1.456-4.194-0.944-6.208c0.071-0.279-0.033-0.43-0.199-0.488
					c1.19-4.625,2.783-9.146,5.332-13.107c2.214-3.439,5.481-6.523,9.526-7.616c2.754-0.745,5.699-0.166,7.271,2.398
					c1.467,2.394,0.857,5.446,1.124,8.125c0.032,0.318,0.552,0.035,0.573-0.186C322.34,206.845,324.084,203.601,322.442,200.562z"/>
			</g>
			<g>
				<path style="fill:#EFB291;" d="M106.2,228.893c3.415,4.249,7.558,8.027,12.499,10.633c3.892,2.053,11.147,5.452,15.538,3.007
					c4.503-2.507,4.747-10.341,4.839-14.617c0.13-6.037-1.104-12.326-3.399-18.007c-0.546-3.201-1.457-6.406-2.932-9.329
					c-2.531-5.015-6.854-10.038-12.563-11.866c-9.981-3.197-20.238,2.05-22.733,11.743C94.809,210.703,99.77,220.894,106.2,228.893z
					"/>
				<path style="opacity:0.64;fill:#EB936D;" d="M129.524,243.335c-0.712-2.122-1.396-4.253-2.043-6.396
					c-2.582-8.544-4.665-17.28-5.751-26.147c-0.873-7.132-1.125-14.42-0.173-21.558c5.028,2.14,8.864,6.742,11.187,11.345
					c1.475,2.923,2.387,6.128,2.932,9.329c2.295,5.681,3.529,11.97,3.399,18.007c-0.092,4.276-0.335,12.11-4.839,14.617
					C132.878,243.289,131.246,243.484,129.524,243.335z"/>
				<path style="opacity:0.65;fill:#92422B;" d="M102.136,200.562c1.004-1.858,2.929-3.008,4.967-3.358
					c4.691-0.805,9.676,2.315,12.799,5.544c6.953,7.187,8.637,17.942,9.415,27.494c0.046,0.559-0.791,0.204-0.867-0.184
					c-0.3-1.533-0.603-3.09-0.929-4.654c-0.139,1.135-0.368,2.253-0.599,3.256c-0.455,1.97-1.594,3.749-3.743,3.953
					c-5.188,0.494-9.048-5.558-11.71-9.003c-0.25-0.324,0.272-0.441,0.479-0.222c2.458,2.6,5.033,6.036,8.581,7.182
					c2.856,0.922,4.019-1.168,4.687-3.519c0.55-1.938,1.456-4.194,0.945-6.208c-0.071-0.279,0.033-0.43,0.199-0.488
					c-1.19-4.625-2.783-9.146-5.332-13.107c-2.214-3.439-5.482-6.523-9.526-7.616c-2.754-0.745-5.699-0.166-7.271,2.398
					c-1.467,2.394-0.857,5.446-1.124,8.125c-0.032,0.318-0.551,0.035-0.573-0.186C102.238,206.845,100.494,203.601,102.136,200.562z
					"/>
			</g>
			<path style="fill:#EFB291;" d="M301.972,101.858c-3.176-49.302-60.739-54.914-60.739-54.914
				c-8.407-1.949-19.676-0.499-29.055,1.511c-9.379-2.01-20.649-3.46-29.055-1.511c0,0-57.563,5.612-60.739,54.914
				c-3.176,49.302,4.367,125.459,10.322,143.897c5.731,17.745,31.687,52.19,69.018,57.615c3.927,1.058,7.587,1.286,10.455,1.206
				c2.868,0.08,6.528-0.149,10.455-1.206c37.331-5.424,63.287-39.87,69.018-57.615C297.605,227.317,305.147,151.16,301.972,101.858z
				"/>
			<path style="fill:#EFB291;" d="M208.705,243.588c-2.118,0.012-4.337-0.528-6.26-1.393c-1.817-0.818-3.46-2.089-4.452-3.831
				c-0.003-0.003-0.007-0.003-0.01-0.006c-0.119-0.119-0.245-0.232-0.368-0.347c-0.036-0.034-0.072-0.068-0.108-0.102
				c-0.053,0.598-0.044,1.2,0.048,1.8c0.197,1.285,0.741,2.491,1.533,3.519c1.52,1.973,3.807,3.279,6.127,4.087
				c2.323,0.809,4.837,1.201,7.295,1.002c2.811-0.227,5.708-1.183,7.924-2.957c1.757-1.406,3.112-3.223,4.341-5.101
				c-1.211,0.778-2.607,1.304-3.958,1.712C216.932,243.143,212.753,243.565,208.705,243.588z"/>
			<g>
				<path style="fill:#FFFFFF;" d="M281.514,198.413c-0.485-1.019-1.352-1.918-2.049-2.815c-0.599-0.77-1.235-1.506-1.964-2.173
					c-1.454-1.33-3.139-2.391-4.978-3.203c-3.726-1.645-7.836-2.363-11.922-2.678c-4.685-0.361-9.409-0.204-13.714,1.613
					c-4.563,2.237-8.706,5.322-11.464,9.419c-1.723,2.56-2.751,5.528-3.271,8.501c-0.296,1.691-0.267,3.401-0.285,5.108
					c-0.011,1.009-0.219,2.219,0.191,3.199c0.1,0.022,0.199,0.043,0.298,0.065c0.641,0.144,1.284,0.279,1.933,0.395
					c1.252,0.223,2.519,0.383,3.786,0.512c4.769,0.483,9.632,0.579,14.422,0.333c4.755-0.244,9.504-0.896,14.026-2.321
					c2.1-0.661,4.151-1.476,5.988-2.643c1.666-1.058,3.157-2.368,4.41-3.839c1.239-1.455,2.26-3.053,3.118-4.728
					c0.435-0.85,0.831-1.715,1.17-2.602C281.474,199.864,281.857,199.134,281.514,198.413z"/>
				<g>
					<g>
						<path style="fill:#009399;" d="M269.2,201.848c-0.505,7.328-6.983,12.908-14.467,12.463
							c-7.484-0.445-13.142-6.747-12.637-14.075c0.505-7.328,6.983-12.908,14.467-12.463
							C264.047,188.219,269.705,194.52,269.2,201.848z"/>
						
							<ellipse transform="matrix(0.9884 -0.1521 0.1521 0.9884 -27.6091 41.2318)" style="fill:#452E08;" cx="255.648" cy="201.043" rx="10.119" ry="9.893"/>
						<path style="fill:#FFFFFF;" d="M254.725,195.511c-0.149,2.161-2.059,3.807-4.266,3.675c-2.207-0.131-3.876-1.99-3.727-4.151
							c0.149-2.161,2.059-3.807,4.266-3.675C253.205,191.491,254.874,193.35,254.725,195.511z"/>
						<path style="fill:#FFFFFF;" d="M247.173,200.876c-0.044,0.638-0.608,1.124-1.26,1.085c-0.652-0.039-1.144-0.587-1.1-1.226
							c0.044-0.638,0.608-1.124,1.26-1.085C246.725,199.689,247.217,200.238,247.173,200.876z"/>
					</g>
				</g>
				<path style="fill:#47332E;" d="M259.888,190.519c0.831-0.041,1.663-0.059,2.496-0.046c2.508,0.04,5.029,0.339,7.444,1.03
					c2.14,0.612,4.156,1.594,6.12,2.629c1.884,0.993,3.718,2.112,5.357,3.478c0.258,0.215,0.509,0.44,0.756,0.67
					c-0.798-2.068-2.712-3.551-4.342-4.963c-2.013-1.743-4.105-3.291-6.534-4.405c-4.043-1.854-8.552-2.785-12.997-2.752
					c-9.029,0.067-18.508,4.011-23.512,11.821c-1.556,2.429-2.384,5.147-2.922,7.962c-0.432,2.261-0.581,4.55-0.406,6.83
					c0.099-0.669,0.21-1.337,0.342-2c0.76-3.809,2.16-7.597,4.471-10.681c0.726-1.318,1.588-2.546,2.706-3.578
					c1.487-1.374,3.289-2.467,5.108-3.339c1.88-0.9,3.862-1.572,5.9-2.009c2.056-0.441,4.147-0.589,6.245-0.657
					C257.373,190.469,258.631,190.469,259.888,190.519z"/>
				<path style="opacity:0.65;fill:#92422B;" d="M275.931,208.801c-1.18,0.667-2.258,1.479-3.383,2.231
					c-1.124,0.752-2.32,1.259-3.563,1.77c-2.483,1.022-4.962,1.933-7.59,2.512c-2.702,0.595-5.442,0.87-8.201,1.031
					c-2.891,0.17-5.763,0.124-8.655,0.132c-2.86,0.008-5.888,0.424-8.695-0.298c-0.048-0.012-0.117,0.064-0.056,0.09
					c2.434,1.014,5.014,0.867,7.598,0.889c2.918,0.025,5.817,0.192,8.738,0.083c5.491-0.204,11.203-0.985,16.232-3.326
					c2.794-1.301,5.032-3.428,7.666-4.985C276.138,208.861,276.045,208.736,275.931,208.801z"/>
				<path style="fill:#47332E;" d="M287.911,173.591c-0.657-0.855-1.33-1.696-2.081-2.472c-1.44-1.487-3.08-2.735-4.958-3.615
					c-3.64-1.707-7.735-2.197-11.704-2.482c-3.805-0.273-7.599-0.339-11.398-0.148c-3.734,0.408-7.469,0.898-11.163,1.571
					c-2.103,0.383-4.196,0.822-6.283,1.286c-2.107,0.468-4.228,0.916-6.312,1.476c-3.262,0.877-6.387,2.154-9.524,3.393
					c0.017,0.515,0.06,1.028,0.135,1.535c0.297,2.004,1.015,4.081,2.393,5.604c0.316,0.349,0.97-0.007,0.99-0.438
					c0.02-0.443-0.025-0.913-0.035-1.378c0.153,0.27,0.331,0.52,0.584,0.709c0.591,0.441,1.413,0.504,2.124,0.483
					c1.838-0.053,3.723-0.49,5.505-0.906c2.185-0.511,4.354-1.079,6.552-1.534c2.199-0.455,4.41-0.851,6.632-1.181
					c4.46-0.663,8.963-1.065,13.442-1.576c4.48-0.511,8.98-0.945,13.495-0.856c4.289,0.084,8.782,0.709,12.117,3.654
					c0.315,0.278,0.779-0.219,0.752-0.527C289.091,175.224,288.486,174.34,287.911,173.591z"/>
			</g>
			<g>
				<path style="fill:#FFFFFF;" d="M142.377,198.413c0.485-1.019,1.352-1.918,2.049-2.815c0.599-0.77,1.235-1.506,1.964-2.173
					c1.454-1.33,3.139-2.391,4.978-3.203c3.726-1.645,7.836-2.363,11.922-2.678c4.685-0.361,9.41-0.204,13.714,1.613
					c4.562,2.237,8.706,5.322,11.463,9.419c1.723,2.56,2.751,5.528,3.271,8.501c0.296,1.691,0.267,3.401,0.285,5.108
					c0.011,1.009,0.218,2.219-0.191,3.199c-0.1,0.022-0.199,0.043-0.298,0.065c-0.641,0.144-1.284,0.279-1.933,0.395
					c-1.252,0.223-2.519,0.383-3.786,0.512c-4.769,0.483-9.632,0.579-14.422,0.333c-4.755-0.244-9.504-0.896-14.026-2.321
					c-2.1-0.661-4.151-1.476-5.988-2.643c-1.666-1.058-3.157-2.368-4.41-3.839c-1.239-1.455-2.26-3.053-3.118-4.728
					c-0.435-0.85-0.83-1.715-1.17-2.602C142.417,199.864,142.035,199.134,142.377,198.413z"/>
				<g>
					<g>
						<path style="fill:#009399;" d="M182.884,199.517c0.973,7.281-4.255,14.046-11.676,15.11
							c-7.422,1.064-14.227-3.976-15.201-11.257c-0.973-7.281,4.255-14.046,11.676-15.11
							C175.105,187.196,181.911,192.236,182.884,199.517z"/>
						<path style="fill:#452E08;" d="M179.452,200.009c0.725,5.422-3.168,10.459-8.694,11.251
							c-5.527,0.792-10.594-2.961-11.319-8.383s3.168-10.459,8.695-11.251C173.66,190.835,178.728,194.588,179.452,200.009z"/>
						<path style="fill:#FFFFFF;" d="M167.433,196.209c0.287,2.147-1.255,4.142-3.443,4.456c-2.189,0.314-4.196-1.173-4.483-3.32
							c-0.287-2.147,1.255-4.142,3.443-4.456C165.139,192.575,167.146,194.061,167.433,196.209z"/>
						<path style="fill:#FFFFFF;" d="M161.11,202.978c0.085,0.634-0.37,1.223-1.017,1.316c-0.646,0.093-1.239-0.346-1.324-0.98
							c-0.085-0.634,0.37-1.223,1.017-1.316C160.432,201.905,161.025,202.344,161.11,202.978z"/>
					</g>
				</g>
				<path style="fill:#47332E;" d="M164.003,190.519c-0.831-0.041-1.663-0.059-2.495-0.046c-2.508,0.04-5.029,0.339-7.444,1.03
					c-2.14,0.612-4.156,1.594-6.12,2.629c-1.884,0.993-3.718,2.112-5.357,3.478c-0.258,0.215-0.509,0.44-0.755,0.67
					c0.798-2.068,2.712-3.551,4.342-4.963c2.013-1.743,4.105-3.291,6.534-4.405c4.043-1.854,8.552-2.785,12.997-2.752
					c9.029,0.067,18.508,4.011,23.512,11.821c1.556,2.429,2.384,5.147,2.922,7.962c0.432,2.261,0.58,4.55,0.405,6.83
					c-0.099-0.669-0.21-1.337-0.342-2c-0.76-3.809-2.16-7.597-4.471-10.681c-0.726-1.318-1.588-2.546-2.706-3.578
					c-1.487-1.374-3.289-2.467-5.108-3.339c-1.88-0.9-3.862-1.572-5.9-2.009c-2.056-0.441-4.147-0.589-6.245-0.657
					C166.518,190.469,165.26,190.469,164.003,190.519z"/>
				<path style="opacity:0.65;fill:#92422B;" d="M147.961,208.801c1.18,0.667,2.258,1.479,3.383,2.231
					c1.124,0.752,2.32,1.259,3.563,1.77c2.483,1.022,4.962,1.933,7.59,2.512c2.702,0.595,5.442,0.87,8.201,1.031
					c2.891,0.17,5.763,0.124,8.655,0.132c2.86,0.008,5.888,0.424,8.695-0.298c0.048-0.012,0.117,0.064,0.056,0.09
					c-2.434,1.014-5.014,0.867-7.598,0.889c-2.918,0.025-5.817,0.192-8.738,0.083c-5.49-0.204-11.203-0.985-16.232-3.326
					c-2.794-1.301-5.032-3.428-7.666-4.985C147.753,208.861,147.846,208.736,147.961,208.801z"/>
				<path style="fill:#47332E;" d="M134.778,173.591c0.657-0.855,1.33-1.696,2.081-2.472c1.44-1.487,3.08-2.735,4.958-3.615
					c3.64-1.707,7.735-2.197,11.704-2.482c3.805-0.273,7.599-0.339,11.398-0.148c3.734,0.408,7.469,0.898,11.163,1.571
					c2.103,0.383,4.196,0.822,6.283,1.286c2.107,0.468,4.228,0.916,6.312,1.476c3.262,0.877,6.387,2.154,9.524,3.393
					c-0.017,0.515-0.06,1.028-0.135,1.535c-0.297,2.004-1.015,4.081-2.393,5.604c-0.316,0.349-0.97-0.007-0.99-0.438
					c-0.02-0.443,0.025-0.913,0.035-1.378c-0.153,0.27-0.331,0.52-0.584,0.709c-0.591,0.441-1.413,0.504-2.124,0.483
					c-1.838-0.053-3.723-0.49-5.505-0.906c-2.185-0.511-4.354-1.079-6.552-1.534c-2.199-0.455-4.41-0.851-6.632-1.181
					c-4.46-0.663-8.963-1.065-13.442-1.576c-4.48-0.511-8.98-0.945-13.495-0.856c-4.29,0.084-8.782,0.709-12.117,3.654
					c-0.315,0.278-0.779-0.219-0.752-0.527C133.598,175.224,134.203,174.34,134.778,173.591z"/>
			</g>
			<path style="opacity:0.65;fill:#92422B;" d="M226.096,237.619c-0.245-0.992-0.965-1.827-1.539-2.709
				c-0.635-0.974-1.268-1.915-2.043-2.824c-0.05-0.058-0.202-0.047-0.138,0.032c0.743,0.931,1.197,2.032,1.731,3.049
				c0.476,0.905,1.131,1.891,0.993,2.902c-0.127,0.929-0.696,1.778-1.308,2.556c-0.581,0.74-1.257,1.415-2.074,1.997
				c-0.568,0.404-1.185,0.761-1.825,1.09c-0.073,0.001-0.149,0.016-0.211,0.049c-1.68,0.882-3.423,1.554-5.315,2.097
				c-0.853,0.245-1.734,0.386-2.626,0.392c-0.892-0.006-1.773-0.148-2.626-0.392c-1.892-0.543-3.636-1.215-5.315-2.097
				c-0.062-0.033-0.138-0.048-0.211-0.049c-0.639-0.329-1.257-0.686-1.825-1.09c-0.818-0.583-1.493-1.258-2.074-1.997
				c-0.611-0.778-1.181-1.627-1.308-2.556c-0.139-1.011,0.517-1.997,0.993-2.902c0.535-1.016,0.988-2.117,1.731-3.049
				c0.063-0.079-0.088-0.09-0.138-0.032c-0.775,0.909-1.409,1.85-2.043,2.824c-0.574,0.882-1.294,1.717-1.539,2.709
				c-0.478,1.934,1.189,3.922,2.852,5.206c1.671,1.29,3.879,2.095,5.957,2.877c1.281,0.483,2.689,0.892,4.124,1.068
				c0.434,0.061,0.872,0.089,1.311,0.092c0.037,0.001,0.074,0.001,0.112,0.002c0.037,0,0.074-0.001,0.111-0.002
				c0.439-0.003,0.877-0.031,1.311-0.092c1.435-0.177,2.843-0.586,4.124-1.068c2.077-0.783,4.286-1.587,5.957-2.877
				C224.906,241.541,226.574,239.553,226.096,237.619z"/>
			<path style="fill:#80492E;" d="M347.678,98.002c-4.753-15.886-13.423-30.504-24.038-43.167
				c-3.701-4.415-7.772-8.425-12.127-12.189c-3.528-3.05-7.231-5.938-11.223-8.361c-1.373-0.833-2.848-1.68-4.388-2.395
				c-1.896-0.299-3.802-0.494-5.68-0.589c-2.947-0.149-6.034-0.055-8.954,0.609c-0.508-1.302-1.274-2.549-2.086-3.658
				c-2.115-2.888-4.918-5.291-7.844-7.323c-6.166-4.282-13.449-7.078-20.634-9.108c-10.147-2.865-20.721-4.162-31.294-4.263
				c-3.239,0.054-6.479,0.237-9.711,0.561c-18.174,1.824-35.779,7.872-51.644,16.845c-14.843,8.394-27.163,20.334-39.582,31.845
				C108.008,66.507,97.204,76.09,84.771,83.22c-4.829,2.769-9.977,5.362-15.407,6.721c1.193,0.924,2.522,1.669,3.994,2.175
				c2.957,1.017,6.127,1.154,9.227,1.158c0.323,0,0.446,0.379,0.251,0.605c-0.61,0.705-1.174,1.447-1.688,2.225
				c-4.455,6.74-5.402,15.391-4.904,23.278c0.498,7.896,2.47,16.126,6.588,22.951c2.719,4.507,6.029,8.719,9.274,12.854
				c3.349,4.267,6.81,8.446,10.205,12.676c3.33,4.149,6.603,8.351,9.636,12.725c3.125,4.506,5.973,9.224,8.579,14.048
				c1.508,2.792,2.919,5.676,4.109,8.642c0.407-1.765,0.943-3.499,1.567-5.203c0.884-2.415,1.865-4.86,3.067-7.136
				c0.491-0.93,1.042-1.824,1.628-2.695c2.784-5.952,6.314-11.561,9.998-16.672c7.134-9.899,15.832-18.368,24.242-27.073
				c-0.692,3-1.039,6.085-1.005,9.073c0.068,6.092,1.771,12.349,4.073,17.957c1.746,4.254,4.093,9.581,8.207,12.032
				c0.715,0.426,1.658-0.154,1.92-0.861c0.604-1.626,0.632-3.323,0.607-5.04c-0.034-2.309,0.214-4.332,0.751-6.587
				c1.139-4.78,2.608-9.496,4.927-13.847c0.049-0.092,0.102-0.182,0.152-0.274c-0.148,2.378-0.167,4.717-0.102,6.914
				c0.259,8.687,0.519,19.212,7.46,25.461c0.711,0.64,1.932-0.404,2.007-1.139c0.289-2.83,0.676-5.658,1.402-8.404
				c1.516-4.055,3.437-7.891,5.676-11.531c0.464-0.678,0.933-1.351,1.403-2.014c4.65-6.567,10.255-12.381,16.234-17.743
				c11.997-10.758,25.771-19.48,40.229-26.531c5.616-2.739,11.364-5.087,17.17-7.323c0.563,4.711,0.968,9.348,0.88,14.06
				c0.179,3.055,0.25,6.118,0.19,9.178c-0.09,4.613-0.464,9.238-1.318,13.768c-0.783,4.152-1.978,8.284-3.944,12
				c-0.114,0.215-0.23,0.428-0.35,0.64c0.796-0.467,1.533-1.075,2.235-1.725c1.971-1.825,3.866-3.768,5.571-5.868
				c3.707-4.565,6.655-9.748,9.116-15.146c0.41-0.899,0.798-1.814,1.175-2.737c0.537,2.361,1.083,4.722,1.501,7.103
				c3.054,17.411,4.606,35.044,8.723,52.244c-0.503-2.1,5.602-9.479,6.87-11.265c2.62-3.693,5.833-7.054,8.847-10.462
				c2.03-2.296,4.109-4.557,6.207-6.804c6.303-6.751,12.785-13.379,18.675-20.446c6.233-6.983,11.265-15.345,11.566-24.932
				C352.471,115.383,350.202,106.436,347.678,98.002z"/>
			<path style="fill:#80492E;" d="M347.678,98.002c-4.753-15.886-13.423-30.504-24.038-43.167
				c-3.701-4.415-7.772-8.425-12.127-12.189c-3.528-3.05-7.231-5.938-11.223-8.361c-1.373-0.833-2.848-1.68-4.388-2.395
				c-1.896-0.299-3.802-0.494-5.68-0.589c-2.947-0.149-6.034-0.055-8.954,0.609c-0.508-1.302-1.274-2.549-2.086-3.658
				c-2.115-2.888-4.918-5.291-7.844-7.323c-6.166-4.282-13.449-7.078-20.634-9.108c-10.147-2.865-20.721-4.162-31.294-4.263
				c-3.239,0.054-6.479,0.237-9.711,0.561c-18.174,1.824-35.779,7.872-51.644,16.845c-14.843,8.394-27.163,20.334-39.582,31.845
				C108.008,66.507,97.204,76.09,84.771,83.22c-4.829,2.769-9.977,5.362-15.407,6.721c1.193,0.924,2.522,1.669,3.994,2.175
				c2.957,1.017,6.127,1.154,9.227,1.158c0.323,0,0.446,0.379,0.251,0.605c-0.61,0.705-1.174,1.447-1.688,2.225
				c-4.455,6.74-5.402,15.391-4.904,23.278c0.498,7.896,2.47,16.126,6.588,22.951c2.719,4.507,6.029,8.719,9.274,12.854
				c3.349,4.267,6.81,8.446,10.205,12.676c3.33,4.149,6.603,8.351,9.636,12.725c3.125,4.506,5.973,9.224,8.579,14.048
				c1.508,2.792,2.919,5.676,4.109,8.642c0.407-1.765,0.943-3.499,1.567-5.203c0.884-2.415,1.865-4.86,3.067-7.136
				c0.491-0.93,1.042-1.824,1.628-2.695c2.784-5.952,6.314-11.561,9.998-16.672c7.134-9.899,15.832-18.368,24.242-27.073
				c-0.692,3-1.039,6.085-1.005,9.073c0.068,6.092,1.771,12.349,4.073,17.957c1.746,4.254,4.093,9.581,8.207,12.032
				c0.715,0.426,1.658-0.154,1.92-0.861c0.604-1.626,0.632-3.323,0.607-5.04c-0.034-2.309,0.214-4.332,0.751-6.587
				c1.139-4.78,2.608-9.496,4.927-13.847c0.049-0.092,0.102-0.182,0.152-0.274c-0.148,2.378-0.167,4.717-0.102,6.914
				c0.259,8.687,0.519,19.212,7.46,25.461c0.711,0.64,1.932-0.404,2.007-1.139c0.289-2.83,0.676-5.658,1.402-8.404
				c1.516-4.055,3.437-7.891,5.676-11.531c0.464-0.678,0.933-1.351,1.403-2.014c4.65-6.567,10.255-12.381,16.234-17.743
				c11.997-10.758,25.771-19.48,40.229-26.531c5.616-2.739,11.364-5.087,17.17-7.323c0.563,4.711,0.968,9.348,0.88,14.06
				c0.179,3.055,0.25,6.118,0.19,9.178c-0.09,4.613-0.464,9.238-1.318,13.768c-0.783,4.152-1.978,8.284-3.944,12
				c-0.114,0.215-0.23,0.428-0.35,0.64c0.796-0.467,1.533-1.075,2.235-1.725c1.971-1.825,3.866-3.768,5.571-5.868
				c3.707-4.565,6.655-9.748,9.116-15.146c0.41-0.899,0.798-1.814,1.175-2.737c0.537,2.361,1.083,4.722,1.501,7.103
				c3.054,17.411,4.606,35.044,8.723,52.244c-0.503-2.1,5.602-9.479,6.87-11.265c2.62-3.693,5.833-7.054,8.847-10.462
				c2.03-2.296,4.109-4.557,6.207-6.804c6.303-6.751,12.785-13.379,18.675-20.446c6.233-6.983,11.265-15.345,11.566-24.932
				C352.471,115.383,350.202,106.436,347.678,98.002z"/>
			<path style="opacity:0.31;fill:#90452C;" d="M347.678,98.002c-4.753-15.886-13.423-30.503-24.038-43.167
				c-2.224-2.654-4.585-5.159-7.058-7.554c1.864,2.78,3.476,5.727,5.065,8.698c5.39,10.079,10.026,20.637,13.242,31.618
				c3.052,10.421,5.181,21.685,3.34,32.518c-1.863,10.958-6.867,21.303-13.177,30.371c-3.071,4.413-6.294,8.73-9.786,12.821
				c-3.375,3.955-7.017,7.777-11.241,10.836c-0.173,0.125-0.487,0.003-0.521-0.212c-0.859-5.519-0.998-11.104-1.137-16.678
				c-0.127-5.106-0.268-10.227-0.992-15.289c-0.62-4.337-1.597-8.658-2.553-12.932c-1.271-5.682-2.778-11.432-5.096-16.808
				c-0.949,4.206-2.617,8.25-4.416,12.152c-2.283,4.954-4.931,9.753-6.941,14.829c-0.164,0.415-0.804,0.263-0.684-0.189
				c0.773-2.896,1.285-5.859,1.589-8.84c0.579-5.673,0.465-11.442-0.347-17.086c-0.481-3.343-1.202-6.681-2.263-9.9
				c-4.201,2.778-8.563,5.304-12.983,7.717c-8.9,4.858-17.949,9.451-26.91,14.193c-8.876,4.697-17.704,9.64-25.562,15.939
				c-1.91,1.531-3.729,3.16-5.535,4.811c-1.56,1.425-2.876,3.104-4.16,4.774c-2.39,3.108-4.714,6.683-8.126,8.769
				c-0.226,0.138-0.541-0.039-0.534-0.306c0.171-5.88,2.027-11.614,4.366-16.964c2.2-5.032,4.925-9.834,7.95-14.413
				c2.981-4.513,6.27-8.763,10.2-12.495c7.527-7.147,16.58-12.352,24.886-18.508c-6.695,2.148-13.034,5.334-19.049,8.951
				c-5.945,3.574-11.611,7.604-17.071,11.879c-5.008,3.921-9.701,8.148-13.963,12.878c-8.598,9.543-15.54,20.858-18.749,33.376
				c-0.088,0.344-0.59,0.331-0.684,0c-1.495-5.245-1.02-10.883,0.06-16.16c1.991-9.726,6.109-19.174,11.383-27.555
				c0.993-1.578,2.035-3.123,3.119-4.637c-3.096,2.748-6.245,5.435-9.438,8.069c-8.209,6.772-16.682,13.214-25.194,19.598
				c-0.286,0.215-0.675-0.202-0.485-0.485c2.008-3.001,4.187-5.885,6.477-8.676c2.07-2.523,4.2-5.044,6.486-7.376
				c1.71-1.745,3.682-3.243,5.599-4.748c3.656-2.872,7.91-5.788,10.475-9.778c-6.265,1.825-12.047,5.106-17.383,8.809
				c-10.202,7.079-19.225,15.948-27.294,25.353c-4.159,4.848-7.939,10.056-10.862,15.749c-2.918,5.682-4.87,11.795-5.731,18.126
				c-0.034,0.247-0.341,0.297-0.521,0.212c-0.837-0.394-1.654-0.826-2.449-1.299c-7.232-4.301-12.919-11.134-17.551-18.041
				c-4.688-6.991-8.508-14.629-10.753-22.759c-2.309-8.364-2.822-17.18-1.017-25.692c1.712-8.072,5.424-15.593,10.283-22.227
				c3.889-5.309,8.461-10.071,13.413-14.395c-7.818,4.851-16.184,8.652-25.149,11.027c-0.405,0.107-0.596-0.428-0.273-0.648
				c1.119-0.764,2.221-1.552,3.302-2.369c8.961-6.771,16.454-15.225,23.966-23.511c1.056-1.165,2.115-2.326,3.179-3.484
				c-10.437,9.671-21.215,19.221-33.613,26.33c-4.829,2.769-9.977,5.362-15.407,6.721c1.193,0.924,2.522,1.669,3.994,2.175
				c2.957,1.017,6.127,1.154,9.227,1.158c0.323,0,0.446,0.379,0.251,0.605c-0.61,0.705-1.174,1.447-1.688,2.225
				c-4.455,6.74-5.402,15.391-4.904,23.278c0.498,7.896,2.47,16.126,6.588,22.951c2.719,4.507,6.029,8.719,9.274,12.854
				c3.349,4.267,6.81,8.446,10.205,12.676c3.33,4.149,6.603,8.351,9.636,12.725c3.125,4.506,5.973,9.224,8.579,14.048
				c1.508,2.792,2.919,5.676,4.109,8.642c0.407-1.765,0.943-3.499,1.567-5.203c0.884-2.415,1.865-4.86,3.067-7.136
				c0.491-0.93,1.042-1.824,1.628-2.695c2.784-5.952,6.314-11.561,9.998-16.672c7.134-9.899,15.832-18.368,24.242-27.073
				c-0.692,3-1.039,6.085-1.005,9.073c0.068,6.092,1.771,12.349,4.073,17.957c1.746,4.254,4.093,9.581,8.207,12.032
				c0.715,0.426,1.658-0.154,1.92-0.861c0.604-1.626,0.632-3.323,0.607-5.04c-0.034-2.309,0.214-4.332,0.751-6.587
				c1.139-4.78,2.608-9.496,4.927-13.847c0.049-0.092,0.102-0.182,0.152-0.274c-0.148,2.378-0.167,4.717-0.102,6.914
				c0.259,8.687,0.519,19.212,7.46,25.461c0.711,0.64,1.932-0.404,2.007-1.139c0.289-2.83,0.676-5.658,1.402-8.404
				c1.516-4.055,3.437-7.891,5.676-11.531c0.464-0.678,0.933-1.351,1.403-2.014c4.65-6.567,10.255-12.381,16.234-17.743
				c11.997-10.758,25.771-19.48,40.229-26.531c5.616-2.739,11.364-5.087,17.17-7.323c0.563,4.711,0.968,9.348,0.88,14.06
				c0.179,3.055,0.25,6.118,0.19,9.178c-0.09,4.613-0.464,9.238-1.318,13.768c-0.783,4.152-1.978,8.284-3.944,12
				c-0.114,0.215-0.23,0.428-0.35,0.64c0.796-0.467,1.533-1.075,2.235-1.725c1.971-1.825,3.866-3.768,5.571-5.868
				c3.707-4.565,6.655-9.748,9.116-15.146c0.41-0.899,0.798-1.815,1.175-2.737c0.537,2.361,1.083,4.722,1.501,7.103
				c3.054,17.411,4.606,35.044,8.723,52.244c-0.503-2.1,5.602-9.479,6.87-11.265c2.62-3.693,5.833-7.054,8.847-10.462
				c2.03-2.296,4.109-4.557,6.207-6.804c6.303-6.751,12.785-13.379,18.675-20.446c6.233-6.983,11.265-15.345,11.566-24.932
				C352.471,115.383,350.202,106.436,347.678,98.002z"/>
			<path style="fill:#80492E;" d="M206.505,97.686c-4.052,3.549-7.871,7.364-11.37,11.459
				C199.05,105.45,202.848,101.634,206.505,97.686z"/>
		</g>
		<g>
			<path style="opacity:0.65;fill:#92422B;" d="M253.602,255.292c-0.004-0.015-0.006-0.029-0.01-0.043
				c-0.304-1.11-2.258-0.12-1.988,0.871c-0.003,0.137-0.007,0.273-0.01,0.41c-0.516,0.348-0.639,0.81-0.529,1.177
				c-1.011,0.4-2.757,0.327-3.498,0.33c-2.812,0.011-5.622-0.016-8.433-0.095c-6.635-0.185-13.262-0.523-19.901-0.523
				c-6.309,0.001-12.586,0.205-18.883,0.554c-3.049,0.169-6.108,0.465-9.106,1.064c-3.303,0.66-6.9,2.586-10.199,1.047
				c-1.047-0.488-2.213,1.202-1.282,1.514c1.456,0.836,2.965,1.088,4.523,0.97c3.766,1.727,5.489,7.597,7.891,10.547
				c3.363,4.129,8.189,6.271,13.425,6.746c5.588,0.507,11.146-0.734,16.585-1.855c5.486-1.13,11.266-2.61,15.577-6.395
				c4.686-4.115,7.454-10.011,13.137-12.799c0.615-0.163,1.197-0.389,1.671-0.706c0.057-0.026,0.106-0.064,0.148-0.109
				c0.351-0.262,0.634-0.577,0.806-0.962C253.816,256.529,253.86,255.976,253.602,255.292z"/>
			<path style="fill:#F3796A;" d="M240.183,266.876c-2.108,2.323-4.019,4.566-6.852,6.047c-2.684,1.404-5.614,2.252-8.555,2.926
				c-10.708,2.457-24.31,5.365-31.783-5.101c-1.931-2.704-3.631-6.685-6.542-8.552c0.04-0.01,0.079-0.019,0.118-0.03
				c2.767-0.733,5.484-1.524,8.302-2.065c6.115-1.172,12.238-1.533,18.453-1.609c11.505-0.142,22.988,0.885,34.485,0.704
				c0.211-0.003,0.441-0.012,0.683-0.026C245.299,261.157,242.669,264.135,240.183,266.876z"/>
			<path style="fill:#FFFFFF;" d="M196.998,266.589c1.089,0.378,2.236,0.625,3.394,0.76c3.439,0.402,6.924,0.067,10.365-0.129
				c4.463-0.254,8.944-0.396,13.375-1.03c2.188-0.313,4.363-0.745,6.482-1.378c1.968-0.588,3.947-1.33,5.712-2.392
				c1.274-0.766,2.349-1.764,3.128-3.035c0.048-0.077,0.091-0.157,0.136-0.236c-8.753-0.198-17.503-0.764-26.266-0.656
				c-6.215,0.077-12.338,0.437-18.453,1.609c-1.121,0.215-2.225,0.47-3.323,0.745c0.622,1.227,1.331,2.409,2.264,3.427
				C194.724,265.268,195.811,266.017,196.998,266.589z"/>
			<path style="fill:#B15137;" d="M232.44,271.254c-3.275-0.495-6.576-0.815-9.882-0.991c-1.84-0.097-3.691-0.2-5.533-0.113
				c-3.027,0.141-6.051,0.429-9.058,0.796c-3.684,0.449-7.413,0.998-10.973,2.074c-0.511,0.155-1.029,0.321-1.538,0.513
				c7.749,7.09,19.701,4.525,29.321,2.317c2.94-0.675,5.87-1.523,8.555-2.926c0.686-0.359,1.317-0.763,1.911-1.201
				C234.309,271.552,233.375,271.395,232.44,271.254z"/>
			<path style="opacity:0.65;fill:#92422B;" d="M226.64,288.981c-3.525,1.751-7.605,2.255-11.499,2.166
				c-1.973-0.045-3.994-0.174-5.917-0.635c-2.243-0.537-4.369-1.444-6.625-1.932c-0.28-0.06-0.854,0.379-0.486,0.624
				c3.991,2.667,8.099,3.903,12.889,4.001c4.242,0.086,8.674-0.427,12.273-2.831C228.151,289.79,227.732,288.439,226.64,288.981z"/>
		</g>
		<path style="fill:#0D0808;" d="M304.358,178.263c-4.606-0.576-9.789-0.576-17.85-4.031c-8.061-3.455-27.063-4.606-41.457-1.727
			c-14.395,2.879-19.916,11.274-21.592,12.955c-2.801,2.81-10.364,3.455-11.804,3.167c-1.439,0.288-9.003-0.357-11.804-3.167
			c-1.676-1.681-7.197-10.076-21.592-12.955c-14.395-2.879-33.396-1.727-41.457,1.727c-8.061,3.455-13.243,3.455-17.85,4.031
			c-4.606,0.576-4.606,4.031-4.606,4.031c0.576,8.637,3.616,7.807,5.182,10.94c0.576,1.152,1.152,7.485,1.727,15.546
			c0.576,8.061,7.485,21.305,18.425,25.911c10.94,4.606,32.245,6.91,45.488,0c13.243-6.91,16.122-23.032,18.425-31.093
			c2.303-8.061,8.061-6.334,8.061-6.334s5.758-1.727,8.061,6.334c2.303,8.061,5.182,24.184,18.426,31.093
			c13.243,6.91,34.548,4.606,45.488,0c10.94-4.606,17.85-17.85,18.426-25.911c0.576-8.061,1.152-14.395,1.727-15.546
			c1.566-3.133,4.606-2.303,5.182-10.94C308.964,182.293,308.964,178.839,304.358,178.263z M182.001,230.372
			c-13.243,6.91-34.548,5.758-45.488-2.879c-10.94-8.637-10.94-28.214-9.788-35.699c0,0,0-9.789,17.274-12.668
			s32.82-3.455,44.912,4.606c0,0,7.485,4.031,8.061,13.819C197.547,207.34,195.244,223.463,182.001,230.372z M286.796,227.493
			c-10.94,8.637-32.245,9.789-45.488,2.879c-13.243-6.91-15.546-23.032-14.971-32.821c0.576-9.788,8.061-13.819,8.061-13.819
			c12.092-8.061,27.638-7.485,44.912-4.606c17.274,2.879,17.274,12.668,17.274,12.668
			C297.736,199.279,297.736,218.856,286.796,227.493z"/>
	</g>
</g>
</svg>
