<?xml version="1.0" encoding="utf-8"?>
<!-- Generator: Adobe Illustrator 27.5.0, SVG Export Plug-In . SVG Version: 6.00 Build 0)  -->
<svg version="1.1" id="Layer_1" xmlns="http://www.w3.org/2000/svg" xmlns:xlink="http://www.w3.org/1999/xlink" x="0px" y="0px"
	 viewBox="0 0 340.617 471.322" style="enable-background:new 0 0 340.617 471.322;" xml:space="preserve">
<g>
	<path style="fill:#3C1600;" d="M335.508,158.255c0.018-0.736-0.876-0.472-1.211-0.179c-2.445,2.14-5.557,3.307-8.805,2.645
		c-2.93-0.597-5.521-2.319-7.658-4.357c-5.133-4.892-7.699-11.857-9.217-18.632c-1.634-7.298-2.28-14.782-3.735-22.117
		c-1.415-7.137-3.155-14.259-6.004-20.975c-2.683-6.322-6.316-12.383-11.369-17.096c-5.043-4.704-11.355-7.551-17.446-10.623
		c-3.354-1.691-6.739-3.333-10.227-4.731c-3.647-1.462-7.398-2.56-11.217-3.471c-7.74-1.846-15.668-2.953-23.611-3.385
		c-8.128-0.442-16.272-0.202-24.383,0.438c-0.225,0.018-0.451,0.04-0.676,0.058c-4.315-0.131-8.632-0.189-12.948-0.18
		c-12.058,0.025-24.12,0.466-36.106,1.835c-11.642,1.329-23.199,3.485-34.473,6.699c-9.394,2.678-18.829,6.104-26.925,11.681
		c-3.921,2.701-7.639,5.958-10.214,10.002c-1.696,2.663-2.814,5.582-3.59,8.606c-0.091,0.193-0.184,0.385-0.272,0.579
		c-2.879,6.356-4.38,13.238-5.846,20.027c-0.748,3.464-1.487,6.931-2.353,10.368c-0.887,3.522-1.906,6.998-3.565,10.244
		c-1.553,3.039-3.491,5.873-5.721,8.458c-2.538,4.385-5.705,8.447-9.686,11.601c-1.135,0.899-2.326,1.783-3.617,2.446
		c-1.496,0.769-3.06,1.409-4.667,1.904c-2.905,0.896-6.029,1.395-9.07,1.468c-1.976,0.048-3.974-0.289-5.872-0.819
		c-1.081-0.302-2.151-0.679-3.183-1.139c0.019,1.914,0.661,3.892,1.355,5.576c1.193,2.895,2.799,5.705,4.737,8.168
		c1.578,2.007,3.516,3.628,5.67,4.84c-0.99,1.986-1.852,4.032-2.562,6.089c-1.564,4.531-2.488,9.562-2.034,14.364
		c0.213,2.255,0.951,4.46,1.689,6.588c0.998,2.881,2.134,5.712,3.243,8.551c2.364,6.054,4.84,12.23,5.894,18.677
		c0.414,2.535,0.623,5.27,0.004,7.773c-0.281,1.137-0.662,2.077-1.305,3.015c-0.274,0.401-0.558,0.736-0.981,1.14
		c-0.337,0.323-0.804,0.683-1.327,1.01c-0.422,0.264-1.007,0.548-1.57,0.778c-0.601,0.245-0.994,1.287-0.086,1.365
		c3.592,0.311,7.084-1.403,9.778-3.655c2.899-2.423,5.325-5.664,6.406-9.319c0.051-0.171,0.095-0.344,0.139-0.517
		c0.764,6.623-3.414,13.316-7.49,18.318c-0.289,0.355-0.434,0.902,0.112,1.101c2.568,0.934,5.4,1.168,7.963,0.092
		c2.386-1.001,4.228-2.974,5.543-5.157c0.389-0.646,0.743-1.314,1.066-1.999c0.611,2.006,1.351,3.971,2.323,5.828
		c1.716,3.278,4.124,6.144,6.979,8.49c3.274,2.69,7.099,4.643,11.047,6.139c0.671,0.254,1.614-0.633,1.243-1.296
		c-2.331-4.172-5.309-8.043-7.234-12.434c5.182,5.903,12.304,10.089,19.394,13.242c3.961,1.761,8.033,3.112,12.221,4.21
		c0.542,0.142,1.782-0.648,1.218-1.27c-2.292-2.526-4.628-4.986-6.726-7.681c-0.778-0.999-1.52-2.026-2.237-3.07
		c1.43,1.219,2.918,2.371,4.452,3.45c8.542,6.006,18.383,10.19,28.553,12.492c5.096,1.154,10.284,1.84,15.494,2.092
		c2.443,0.499,4.931,0.805,7.409,1.007c3.399,0.276,6.811,0.335,10.219,0.315c5.01-0.029,10.019-0.256,15.003-0.766
		c9.836-1.007,19.389-3.375,28.643-6.837c8.902-3.33,17.413-7.638,25.399-12.788c0.232-0.15,0.458-0.307,0.688-0.459
		c-1.303,1.584-2.708,3.084-4.185,4.511c-0.592,0.377-1.188,0.747-1.792,1.106c-0.253,0.15-0.542,0.62-0.43,0.948
		c-0.066,0.059-0.131,0.12-0.198,0.178c-1.931,1.703-3.952,3.293-5.978,4.881c-0.399,0.312-0.73,1.024-0.071,1.263
		c4.012,1.455,8.46,1.127,12.555,0.216c4.253-0.945,8.381-2.591,12.188-4.7c4.821-2.67,9.1-6.273,12.487-10.586
		c0.411,2.104,1.107,4.151,2.101,6.082c1.297,2.521,3.076,4.73,5.122,6.681c0.513,0.49,1.626-0.391,1.435-1.006
		c-2.075-6.67,0.145-14.155,3.001-20.239c0.574-1.223,1.199-2.433,1.868-3.624c2.141-1.796,4.275-3.643,6.278-5.613
		c-1.683,2.672-3.511,5.257-5.361,7.792c-1.336,1.831-2.671,3.663-3.989,5.507c-0.169,0.237-0.216,0.72,0.09,0.886
		c2.754,1.487,6.017,1.393,8.983,0.667c3.32-0.813,6.474-2.363,9.283-4.293c2.601-1.788,4.789-3.951,6.536-6.583
		c1.043-1.571,1.943-3.242,2.718-4.971c-0.02,1.792,0.13,3.589,0.615,5.31c0.63,2.233,1.787,4.261,3.242,6.057
		c1.748,2.157,3.861,3.932,5.879,5.821c0.523,0.489,1.775-0.409,1.514-1.061c-1.102-2.754-1.945-5.573-2.115-8.551
		c-0.158-2.773,0.168-5.56,0.884-8.24c1.469-5.493,4.38-10.482,7.697-15.055c1.299-1.791,2.622-3.515,3.689-5.461
		c1.059-1.931,1.954-3.956,2.681-6.035c0.922-2.635,1.608-5.394,1.948-8.185c0.183,0.222,0.625,0.219,0.842,0.102
		c5.939-3.215,7.286-10.447,6.777-16.646c-0.266-3.248-0.954-6.496-2.291-9.48c-0.695-1.551-1.574-2.974-2.605-4.278
		c3.356-0.665,6.569-2.098,8.898-4.598C334.421,163.788,335.437,161.102,335.508,158.255z M257.708,63.472
		c-11.496-3.018-23.256-4.966-35.074-6.174c-4.096-0.419-8.2-0.742-12.309-0.992c2.989-0.076,5.98-0.084,8.97-0.002
		c8.102,0.222,16.199,1.034,24.148,2.635c3.948,0.795,7.9,1.728,11.721,3.011c2.316,0.777,4.582,1.687,6.813,2.678
		C260.55,64.225,259.123,63.843,257.708,63.472z"/>
	<g>
		<path style="fill:#EFB291;" d="M248.204,348.425c0,0-31.089-15.313-42.69-25.521c-11.6-10.208-8.352-66.355-8.352-66.355h-22.737
			h-7.888H143.8c0,0,3.248,56.146-8.352,66.355c-11.601,10.208-42.69,25.521-42.69,25.521s25.353,41.998,49.233,64.165
			c0,0,6.185,9.588,28.49,9.15c22.305,0.438,28.49-9.15,28.49-9.15C222.852,390.423,248.204,348.425,248.204,348.425z"/>
		<path style="opacity:0.64;fill:#EB936D;" d="M143.811,289.23c2.289,1.483,4.862,2.571,7.408,3.417
			c4.466,1.483,9.15,2.318,13.83,2.743c5.85,0.531,11.806,0.246,17.566-0.917c2.91-0.588,5.708-1.507,8.554-2.329
			c2.021-0.584,4.045-1.163,6.044-1.819c-1.027-16.92-0.052-33.776-0.052-33.776H143.8
			C143.8,256.549,144.733,272.686,143.811,289.23z"/>
		<path style="opacity:0.55;fill:#EFB291;" d="M205.515,322.904c-1.295-1.14-2.404-2.856-3.355-4.999
			c-0.48,0.653-0.957,1.307-1.442,1.956c-5.639,7.543-32.057,45.753-32.218,45.591c-2.993-3.008-5.349-6.58-7.591-10.163
			c-2.007-3.208-4.013-6.399-6.127-9.538c-2.38-3.534-4.825-7.023-7.248-10.527c-3.417-4.942-6.799-9.926-9.879-15.088
			c-0.669,1.12-1.401,2.058-2.208,2.768c-11.601,10.208-42.69,25.521-42.69,25.521s25.353,41.998,49.233,64.165
			c0,0,6.185,9.588,28.49,9.15c22.305,0.438,28.49-9.15,28.49-9.15c23.881-22.167,49.233-64.165,49.233-64.165
			S217.115,333.112,205.515,322.904z"/>
		<path style="opacity:0.55;fill:#EFB291;" d="M151.939,277.099c2.693,1.355,5.544,2.545,8.494,3.21
			c2.687,0.606,5.436,0.898,8.19,0.923c5.684,0.052,11.332-1.02,16.728-2.76c3.925-1.265,7.726-2.891,11.393-4.779
			c-0.005-9.829,0.418-17.145,0.418-17.145H143.8c0,0,0.389,6.723,0.417,15.936C146.693,274.185,149.258,275.75,151.939,277.099z"/>
		<path style="fill:#F7E3D3;" d="M120.599,322.44c0,0,9.164-6.923,11.31-4.854c2.146,2.07,56.436,88.377,56.436,88.377
			l-31.089,36.194C157.257,442.157,121.991,340.073,120.599,322.44z"/>
		<path style="fill:#F7E3D3;" d="M166.6,371.501c-2.73,3.15-5.13,6.581-7.418,10.06c-2.53,3.847-4.925,7.782-7.47,11.619
			c-2.431,3.664-4.855,7.33-7.256,11.012c6.994,21.155,12.801,37.964,12.801,37.964l31.089-36.194
			C188.346,405.963,178.253,389.919,166.6,371.501z"/>
		<path style="fill:#F7E3D3;" d="M215.259,322.44c0,0-9.164-6.923-11.31-4.854c-2.146,2.07-56.436,88.377-56.436,88.377
			l31.089,36.194C178.602,442.157,213.867,340.073,215.259,322.44z"/>
		<path style="fill:#F7E3D3;" d="M196.203,351.609c-5.961,11.236-11.93,22.468-17.981,33.656
			c-6.036,11.162-12.165,22.272-18.439,33.302c-0.192,0.337-0.382,0.676-0.573,1.013l19.392,22.576
			c0,0,35.265-102.084,36.658-119.717c0,0-1.077-0.814-2.58-1.8C207.159,330.948,201.682,341.28,196.203,351.609z"/>
		<path style="fill:#76CABD;" d="M203.256,464.252c-21.038-31.312-80.104-149.004-80.104-149.004
			c-2.784,0.928-8.352,6.496-8.352,6.496c1.67,60.115,25.874,129.241,30.714,142.508H203.256z"/>
		<path style="fill:#76CABD;" d="M149.965,451.83c-4.097-11.775-7.091-23.885-9.928-36.015c-2.949-12.607-5.649-25.27-8.648-37.865
			c-2.753-11.561-6.125-22.977-8.604-34.603c-1.811-8.49-3.185-17.218-3.133-25.928c-2.442,1.914-4.853,4.324-4.853,4.324
			c1.67,60.115,25.874,129.241,30.714,142.508h9.164C152.991,460.155,151.42,456.011,149.965,451.83z"/>
		<path style="fill:#76CABD;" d="M169.268,404.476c-2.53,3.339-5.044,6.689-7.518,10.069c-6.575,8.984-12.93,18.133-18.904,27.528
			c-1.076,1.692-2.135,3.396-3.185,5.105c2.628,8.089,4.746,14.043,5.852,17.074h57.743
			C195.484,452.685,182.523,429.331,169.268,404.476z"/>
		<path style="fill:#ED646F;" d="M127.753,464.252L87.422,342.625l-6.029,2.982c0,0-33.412,18.363-43.157,32.747
			c-8.727,12.882-28.988,73.395-33.127,85.898H127.753z"/>
		<path style="opacity:0.61;fill:#CD605C;" d="M82.57,372.125c1.449,10.259,3.433,20.439,5.792,30.526
			c2.3,9.835,5.253,19.504,8.759,28.976c3.472,9.382,7.469,18.563,11.799,27.579c0.811,1.688,1.637,3.368,2.47,5.046h16.363
			L87.422,342.625l-6.029,2.982c0,0-0.411,0.226-1.153,0.646C80.528,354.911,81.358,363.551,82.57,372.125z"/>
		<path style="fill:#76CABD;" d="M194.986,464.252c4.84-13.267,29.044-82.393,30.714-142.508c0,0-5.568-5.568-8.352-6.496
			c0,0-59.067,117.692-80.104,149.004H194.986z"/>
		<path style="fill:#76CABD;" d="M221.22,317.716c-0.041,0.258-0.082,0.515-0.124,0.772c-0.672,4.076-1.505,8.122-2.283,12.178
			c-2.451,12.781-5.367,25.486-8.108,38.209c-3.178,14.747-6.651,29.434-10.615,43.991c-1.987,7.297-4.098,14.561-6.355,21.78
			c-1.934,6.185-3.986,12.326-5.843,18.535c-1.106,3.699-2.213,7.401-3.417,11.07h10.51c4.84-13.267,29.044-82.393,30.714-142.508
			C225.699,321.744,223.529,319.573,221.22,317.716z"/>
		<path style="fill:#ED646F;" d="M335.389,464.252c-4.138-12.503-24.4-73.016-33.126-85.898
			c-9.744-14.385-43.157-32.747-43.157-32.747l-6.029-2.982l-40.331,121.627H335.389z"/>
		<path style="fill:#CD605C;" d="M237.527,447.735c3.355-8.822,6.211-17.828,8.758-26.914c2.467-8.803,4.717-17.688,6.645-26.625
			c1.915-8.879,4.026-17.721,5.488-26.691c1.144-7.018,1.968-14.21,1.676-21.345c-0.635-0.359-0.988-0.553-0.988-0.553l-6.029-2.982
			l-40.331,121.627h17.713C233.063,458.857,235.399,453.332,237.527,447.735z"/>
		<path style="fill:#ED646F;" d="M188.891,464.252h37.558c5.523-12.406,28.241-66.065,33.123-119.771
			c0,0-23.201-26.913-30.161-30.161c-6.96-3.248-8.95,2.959-8.95,2.959l2.453,2.146
			C222.915,319.424,208.692,419.574,188.891,464.252z"/>
		<path style="fill:#ED646F;" d="M151.607,464.252c-19.819-44.678-34.488-144.828-34.488-144.828l2.917-2.146
			c0,0-1.989-6.207-8.95-2.959c-6.96,3.248-30.161,30.161-30.161,30.161c4.882,53.706,27.6,107.365,33.123,119.771H151.607z"/>
	</g>
	<g>
		<g>
			<path style="fill:#EFB291;" d="M272.75,182.437c-3.379-10.155-13.569-14.818-22.598-10.457
				c-5.165,2.494-8.687,8.282-10.527,13.894c-1.073,3.271-1.586,6.792-1.756,10.273c-1.548,6.304-2.034,13.159-1.267,19.617
				c0.543,4.574,1.609,12.947,6.105,15.213c4.383,2.209,10.831-2.113,14.266-4.678c4.361-3.256,7.846-7.693,10.598-12.566
				C272.754,204.558,276.322,193.172,272.75,182.437z"/>
			<path style="opacity:0.64;fill:#EB936D;" d="M247.217,231.395c0.442-2.341,0.856-4.689,1.235-7.046
				c1.511-9.398,2.533-18.956,2.604-28.561c0.058-7.725-0.485-15.559-2.142-23.12c-4.492,2.765-7.601,8.056-9.29,13.206
				c-1.073,3.271-1.586,6.792-1.756,10.273c-1.548,6.304-2.034,13.159-1.267,19.617c0.543,4.574,1.609,12.947,6.105,15.213
				C244.063,231.66,245.617,231.716,247.217,231.395z"/>
			<path style="opacity:0.67;fill:#EB936D;" d="M268.359,182.989c-1.141-1.897-3.072-2.95-5.022-3.134
				c-4.49-0.423-8.837,3.387-11.424,7.14c-5.759,8.354-6.192,20.038-5.901,30.348c0.017,0.603,0.765,0.145,0.794-0.278
				c0.117-1.671,0.236-3.368,0.375-5.075c0.252,1.203,0.586,2.38,0.911,3.434c0.637,2.068,1.897,3.868,3.937,3.886
				c4.924,0.044,7.901-6.804,10.032-10.745c0.2-0.37-0.302-0.448-0.473-0.193c-2.03,3.016-4.08,6.94-7.289,8.5
				c-2.583,1.256-3.898-0.875-4.776-3.332c-0.724-2.025-1.815-4.359-1.55-6.565c0.037-0.306-0.077-0.458-0.239-0.504
				c0.623-5.069,1.635-10.063,3.605-14.546c1.711-3.894,4.449-7.504,8.13-9.055c2.507-1.056,5.333-0.712,7.083,1.889
				c1.634,2.428,1.387,5.756,1.923,8.603c0.064,0.338,0.522-0.014,0.518-0.252C268.935,189.733,270.226,186.092,268.359,182.989z"/>
		</g>
		<g>
			<path style="fill:#EFB291;" d="M72.927,212.28c2.752,4.873,6.238,9.31,10.598,12.566c3.435,2.564,9.882,6.887,14.266,4.678
				c4.496-2.265,5.562-10.639,6.105-15.212c0.767-6.459,0.281-13.314-1.267-19.617c-0.17-3.482-0.683-7.002-1.756-10.273
				c-1.84-5.612-5.362-11.4-10.527-13.894c-9.03-4.361-19.219,0.302-22.598,10.457C64.176,191.719,67.745,203.105,72.927,212.28z"/>
			<path style="opacity:0.64;fill:#EB936D;" d="M93.281,229.942c-0.442-2.341-0.856-4.689-1.235-7.046
				c-1.511-9.398-2.533-18.956-2.604-28.561c-0.058-7.725,0.484-15.559,2.142-23.12c4.492,2.765,7.601,8.056,9.29,13.206
				c1.073,3.271,1.586,6.791,1.756,10.273c1.548,6.304,2.034,13.159,1.267,19.617c-0.543,4.574-1.609,12.947-6.105,15.212
				C96.435,230.207,94.882,230.263,93.281,229.942z"/>
			<path style="opacity:0.67;fill:#EB936D;" d="M72.139,181.537c1.141-1.897,3.072-2.95,5.022-3.134
				c4.49-0.423,8.837,3.387,11.424,7.14c5.759,8.354,6.192,20.038,5.901,30.348c-0.017,0.603-0.765,0.145-0.794-0.278
				c-0.117-1.671-0.236-3.368-0.375-5.075c-0.252,1.203-0.586,2.38-0.911,3.434c-0.637,2.068-1.897,3.868-3.937,3.886
				c-4.924,0.044-7.901-6.804-10.032-10.745c-0.2-0.37,0.302-0.448,0.473-0.194c2.03,3.016,4.08,6.94,7.289,8.5
				c2.583,1.256,3.898-0.875,4.776-3.332c0.724-2.025,1.815-4.358,1.55-6.565c-0.037-0.306,0.077-0.458,0.239-0.504
				c-0.623-5.068-1.635-10.063-3.605-14.546c-1.711-3.893-4.449-7.504-8.13-9.054c-2.507-1.056-5.333-0.712-7.083,1.889
				c-1.634,2.428-1.387,5.757-1.923,8.603c-0.064,0.338-0.522-0.014-0.518-0.253C71.563,188.28,70.273,184.64,72.139,181.537z"/>
		</g>
		<path style="fill:#EFB291;" d="M250.647,122.121c-2.836-41.479-71.807-53.021-80.182-51.33c-8.375-1.691-77.346,9.85-80.182,51.33
			c-2.836,41.479,3.899,105.553,9.217,121.065c5.117,14.929,28.295,43.91,61.63,48.473c3.507,0.89,6.775,1.082,9.336,1.015
			c2.561,0.067,5.829-0.125,9.336-1.015c33.335-4.563,56.512-33.544,61.63-48.473C246.748,227.674,253.483,163.601,250.647,122.121z
			"/>
		<g>
			<path style="fill:#F07D77;" d="M194.958,248.077c-4.837-0.035-9.519-1.16-14.233-2.014c-2.108-0.382-4.547-0.986-6.674-0.415
				c-0.859,0.231-1.591,0.683-2.171,1.297c-0.231,0.244-0.43,0.507-0.624,0.773c-0.194-0.266-0.393-0.528-0.624-0.773
				c-0.581-0.614-1.313-1.066-2.171-1.297c-2.127-0.571-4.565,0.033-6.674,0.415c-4.715,0.854-9.396,1.979-14.234,2.014
				c-0.428,0.003-0.99,0.432-0.732,0.843c1.207,1.921,2.205,3.957,3.612,5.771c1.397,1.802,3.134,3.399,5.212,4.555
				c2.142,1.192,4.558,1.951,7.017,2.389c2.395,0.426,4.867,0.688,7.307,0.722c0.426,0.006,0.856,0.002,1.286-0.008
				c0.431,0.01,0.86,0.014,1.287,0.008c2.441-0.034,4.912-0.296,7.307-0.722c2.459-0.437,4.875-1.197,7.017-2.389
				c2.077-1.156,3.815-2.752,5.212-4.555c1.406-1.814,2.405-3.85,3.612-5.771C195.948,248.509,195.387,248.08,194.958,248.077z"/>
			<path style="fill:#D7513D;" d="M197.703,246.889c-0.375-0.253-0.862-0.196-1.273-0.061c-0.287,0.095-0.543,0.251-0.798,0.4
				c-0.235,0.137-0.471,0.274-0.699,0.421c-0.489,0.315-1.022,0.761-1.192,1.305c-0.592,0.256-1.202,0.485-1.804,0.708
				c-1.622,0.601-3.283,1.117-4.968,1.552c-3.316,0.856-6.723,1.462-10.147,1.82c-3.484,0.364-7.008,0.524-10.511,0.333
				c-3.491-0.191-7.014-0.614-10.337-1.632c-1.894-0.58-3.741-1.271-5.362-2.35c-0.732-0.487-1.41-1.007-2.229-1.38
				c-0.826-0.376-1.778-0.521-2.688-0.614c-0.538-0.055-0.879,0.618-0.57,0.83c-0.002,0.001-0.003,0.002-0.005,0.004
				c0.006,0.003,0.011,0.004,0.017,0.007c0.029,0.018,0.063,0.031,0.103,0.04c0.668,0.285,1.397,0.401,2.067,0.689
				c0.823,0.353,1.55,0.849,2.387,1.188c0.759,0.308,1.561,0.495,2.346,0.735c0.949,0.29,1.885,0.62,2.836,0.909
				c3.315,1.008,6.746,1.738,10.224,2.078c7.006,0.685,14.139,0.182,20.947-1.465c1.942-0.47,3.849-1.046,5.709-1.737
				c0.977-0.363,1.921-0.785,2.888-1.168c0.297-0.118,0.594-0.234,0.891-0.351c0.492,0.087,1.015-0.15,1.43-0.368
				c0.483-0.253,1.034-0.64,1.101-1.18C198.103,247.315,197.953,247.058,197.703,246.889z"/>
		</g>
		<g>
			<path style="opacity:0.64;fill:#EB936D;" d="M180.419,225.883c-1.078-0.468-2.061-1.116-3.119-1.622
				c-1.181-0.566-2.636-0.812-3.929-0.951c-1.27-0.137-2.68-0.205-3.939,0.055c-1.418,0.293-2.777,1.025-4.114,1.558
				c-1.426,0.569-4.178,1.716-6.006,1.219c0.823,1.227,1.912,2.276,3.136,3.105c3.359,2.274,7.519,3.017,11.468,2.142
				c3.244-0.719,6.2-2.472,8.313-5.002C181.61,226.352,180.988,226.13,180.419,225.883z"/>
			<path style="opacity:0.67;fill:#EB936D;" d="M165.977,231.277c-0.761-0.835-1.97-1.238-2.942-1.784
				c-1.041-0.585-2.075-1.224-2.942-2.053c-0.853-0.816-1.677-1.87-1.79-3.084c-0.097-1.041,0.302-2.053,0.63-3.02
				c1.773-5.226,2.91-10.799,3.455-16.287c0.155-1.559,0.259-3.122,0.315-4.688c0.057-1.588-0.022-3.15-0.099-4.734
				c-0.008-0.158-0.243-0.07-0.25,0.053c-0.159,2.93-0.481,5.884-0.868,8.793c-0.393,2.953-0.893,5.903-1.536,8.812
				c-0.605,2.735-1.305,5.47-2.228,8.117c-0.349,1.002-0.74,2.055-0.69,3.133c0.054,1.169,0.62,2.191,1.37,3.063
				c0.904,1.05,2.035,1.9,3.258,2.544c1.181,0.62,2.536,1.399,3.859,1.612C165.713,231.785,166.201,231.522,165.977,231.277z"/>
			<path style="opacity:0.67;fill:#EB936D;" d="M182.931,223.475c-0.322-1.345-0.97-2.678-1.022-4.073
				c-0.006-0.169-0.257-0.095-0.285,0.028c-0.543,2.391,0.947,4.725,0.18,7.084c-0.635,1.953-2.525,3.07-4.036,4.287
				c-0.245,0.197-0.155,0.63,0.201,0.441c1.896-1.01,3.927-2.189,4.804-4.256C183.252,225.855,183.212,224.651,182.931,223.475z"/>
		</g>
		<g>
			<path style="fill:#FFFFFF;" d="M238.78,174.889c-2.095,0.107-4.152,0.545-6.258,0.359c-1.034-0.091-2.057-0.292-3.058-0.571
				c-0.213-0.194-0.429-0.383-0.652-0.562c-0.214-0.111-0.425-0.227-0.647-0.328c-7.862-3.607-17.753-1.713-24.728,3.038
				c-2.277,1.551-4.183,3.531-5.649,5.804c-1.71,3.008-2.793,6.32-3.338,9.741c-0.25,0.762-0.491,1.551-0.673,2.327
				c-0.142,0.607-0.244,1.293,0.304,1.72c0.585,0.455,1.41,0.586,2.119,0.706c0.953,0.162,1.906,0.301,2.871,0.37
				c2.594,0.185,5.218,0.269,7.818,0.324c2.671,0.057,5.346-0.006,8.007-0.258c2.411-0.229,4.857-0.55,7.186-1.235
				c3.858-1.134,7.312-3.326,9.812-6.497c1.674-2.123,3.08-4.533,4.394-6.891c1.276-2.291,2.698-4.853,3.048-7.489
				C239.38,175.136,239.077,174.874,238.78,174.889z"/>
			<g>
				<g>
					<circle style="fill:#92422B;" cx="214.902" cy="184.789" r="12.209"/>
					
						<ellipse transform="matrix(0.2298 -0.9732 0.9732 0.2298 -14.318 351.4863)" style="fill:#1A1716;" cx="214.902" cy="184.789" rx="9.091" ry="9.091"/>
					<path style="fill:#FFFFFF;" d="M213.731,179.77c0,1.989-1.612,3.6-3.6,3.6s-3.6-1.612-3.6-3.6c0-1.988,1.612-3.6,3.6-3.6
						S213.731,177.781,213.731,179.77z"/>
					<path style="fill:#FFFFFF;" d="M207.288,185.098c0,0.587-0.476,1.063-1.063,1.063c-0.587,0-1.063-0.476-1.063-1.063
						c0-0.587,0.476-1.063,1.063-1.063C206.812,184.035,207.288,184.511,207.288,185.098z"/>
				</g>
			</g>
			<path d="M200.094,183.754c1.29-1.734,2.734-3.349,4.389-4.735c3.361-2.814,7.352-4.259,11.664-4.862
				c2.396-0.335,4.877-0.383,7.264,0.054c1.051,0.193,2.085,0.468,3.111,0.778c2.97,0.628,5.956,1.379,9.003,1.409
				c1.44,0.014,2.961-0.134,4.256-0.811c0.805-0.421,1.428-1.027,1.885-1.755c-0.111-0.014-0.237,0.007-0.372,0.074
				c-4.957,2.445-10.187-0.262-14.94-1.886c-4.685-1.601-9.663-2.567-14.617-1.943c-4.766,0.6-9.407,2.756-12.625,6.369
				c-1.812,2.035-3.21,4.436-4.24,6.982c-0.528,2.304-0.837,4.666-1.036,6.996c-0.17,1.986-0.253,3.976-0.294,5.967
				c0.528-2.166,1.314-4.272,2.296-6.25C196.968,187.868,198.393,185.684,200.094,183.754z"/>
		</g>
		<g>
			<path style="fill:#FFFFFF;" d="M104.364,175.447c0.35,2.636,1.772,5.198,3.048,7.489c1.314,2.359,2.72,4.768,4.394,6.891
				c2.5,3.171,5.954,5.362,9.812,6.497c2.329,0.685,4.775,1.006,7.186,1.235c2.661,0.252,5.336,0.314,8.007,0.258
				c2.601-0.055,5.224-0.14,7.818-0.324c0.965-0.069,1.918-0.208,2.871-0.37c0.709-0.121,1.534-0.251,2.119-0.706
				c0.549-0.427,0.446-1.113,0.304-1.72c-0.181-0.775-0.422-1.565-0.673-2.327c-0.545-3.421-1.628-6.733-3.338-9.741
				c-1.466-2.273-3.372-4.253-5.649-5.804c-6.975-4.751-16.865-6.644-24.727-3.038c-0.221,0.102-0.432,0.217-0.647,0.328
				c-0.222,0.179-0.439,0.368-0.652,0.562c-1.001,0.28-2.023,0.48-3.058,0.571c-2.105,0.186-4.163-0.252-6.258-0.359
				C104.625,174.874,104.322,175.136,104.364,175.447z"/>
			<g>
				<g>
					<circle style="fill:#92422B;" cx="128.801" cy="184.789" r="12.209"/>
					
						<ellipse transform="matrix(0.9239 -0.3827 0.3827 0.9239 -60.9112 63.3561)" style="fill:#1A1716;" cx="128.801" cy="184.789" rx="9.091" ry="9.091"/>
					<path style="fill:#FFFFFF;" d="M127.63,179.77c0,1.989-1.612,3.6-3.601,3.6c-1.988,0-3.6-1.612-3.6-3.6
						c0-1.988,1.612-3.6,3.6-3.6C126.018,176.169,127.63,177.781,127.63,179.77z"/>
					<circle style="fill:#FFFFFF;" cx="120.124" cy="185.098" r="1.063"/>
				</g>
			</g>
			<path d="M143.609,183.754c-1.29-1.734-2.734-3.349-4.389-4.735c-3.361-2.814-7.352-4.259-11.664-4.862
				c-2.396-0.335-4.877-0.383-7.264,0.054c-1.051,0.193-2.086,0.468-3.111,0.778c-2.97,0.628-5.955,1.379-9.003,1.409
				c-1.44,0.014-2.96-0.134-4.256-0.811c-0.805-0.421-1.428-1.027-1.885-1.755c0.111-0.014,0.237,0.007,0.372,0.074
				c4.957,2.445,10.187-0.262,14.94-1.886c4.685-1.601,9.663-2.567,14.617-1.943c4.766,0.6,9.407,2.756,12.625,6.369
				c1.812,2.035,3.21,4.436,4.24,6.982c0.528,2.304,0.838,4.666,1.037,6.996c0.17,1.986,0.253,3.976,0.294,5.967
				c-0.528-2.166-1.314-4.272-2.296-6.25C146.735,187.868,145.31,185.684,143.609,183.754z"/>
		</g>
		<g style="opacity:0.47;">
			<path style="fill:#E14A31;" d="M204.845,207.12c-0.018-0.056-0.053-0.1-0.105-0.132c-0.051-0.036-0.107-0.055-0.167-0.058
				c-0.065-0.014-0.13-0.013-0.195,0.004c-0.046,0.015-0.092,0.03-0.138,0.044c-0.096,0.042-0.18,0.101-0.252,0.177
				c-0.03,0.038-0.059,0.076-0.089,0.114c-0.048,0.074-0.075,0.155-0.083,0.243v0.161c-0.008,0.061,0.003,0.117,0.034,0.168
				c0.018,0.056,0.053,0.1,0.105,0.132c0.051,0.036,0.106,0.055,0.167,0.058c0.065,0.014,0.13,0.013,0.195-0.004
				c0.046-0.015,0.092-0.03,0.138-0.045c0.096-0.042,0.18-0.101,0.252-0.176c0.03-0.038,0.059-0.076,0.089-0.114
				c0.048-0.074,0.075-0.155,0.083-0.243v-0.161C204.886,207.227,204.875,207.171,204.845,207.12z"/>
			<path style="fill:#E14A31;" d="M210.126,205.82c-0.512,0-0.992,0.911-0.312,0.911C210.326,206.731,210.805,205.82,210.126,205.82
				z"/>
			<path style="fill:#E14A31;" d="M216.284,205.443c-0.008-0.075-0.023-0.148-0.046-0.221c-0.008-0.027-0.022-0.053-0.035-0.079
				c-0.012-0.076-0.039-0.148-0.109-0.191c-0.1-0.061-0.202-0.06-0.315-0.047c-0.127-0.007-0.257,0.005-0.365,0.064
				c-0.053,0.029-0.1,0.059-0.149,0.089c-0.211,0.097-0.405,0.231-0.559,0.399c-0.285,0.309-0.445,0.704-0.476,1.122
				c-0.008,0.108,0.031,0.208,0.107,0.283c0.083,0.081,0.177,0.106,0.293,0.116c0.168,0.015,0.333,0.006,0.5-0.019
				c0.207-0.031,0.392-0.118,0.57-0.224c0.086-0.051,0.165-0.122,0.236-0.191c0.071-0.068,0.133-0.149,0.184-0.233
				c0.101-0.165,0.16-0.349,0.178-0.542C216.309,205.661,216.296,205.55,216.284,205.443z"/>
			<path style="fill:#E14A31;" d="M224.844,207.629c-0.014-0.066-0.046-0.119-0.098-0.159c-0.042-0.051-0.096-0.084-0.162-0.098
				c-0.017-0.007-0.034-0.013-0.051-0.02c-0.038-0.006-0.076-0.011-0.115-0.017c-0.066-0.002-0.129,0.009-0.189,0.033
				c-0.046,0.01-0.088,0.029-0.127,0.056c-0.065,0.032-0.123,0.075-0.172,0.129l-0.063,0.058c-0.033,0.042-0.066,0.084-0.098,0.126
				c-0.043,0.062-0.069,0.129-0.078,0.202c-0.016,0.043-0.018,0.087-0.008,0.132c-0.003,0.044,0.007,0.085,0.032,0.122
				c0.02,0.062,0.059,0.11,0.116,0.146l0.117,0.054l0.136,0.02c0.078,0.003,0.153-0.01,0.224-0.039
				c0.055-0.012,0.105-0.034,0.151-0.067c0.053-0.023,0.1-0.056,0.14-0.098c0.066-0.049,0.121-0.11,0.163-0.182
				c0.021-0.045,0.043-0.089,0.064-0.134c0.009-0.045,0.019-0.09,0.028-0.135C224.852,207.715,224.848,207.672,224.844,207.629z"/>
			<path style="fill:#E14A31;" d="M227.509,210.702c-0.623,0-1.207,1.108-0.38,1.108
				C227.752,211.81,228.335,210.702,227.509,210.702z"/>
			<path style="fill:#E14A31;" d="M217.085,213.473c-0.009-0.076-0.026-0.151-0.053-0.223c-0.084-0.22-0.207-0.415-0.412-0.543
				c-0.249-0.155-0.542-0.201-0.829-0.15c-0.082,0.015-0.164,0.042-0.245,0.075c-0.27,0.079-0.496,0.258-0.667,0.492
				c-0.167,0.229-0.259,0.513-0.294,0.792c-0.035,0.278,0.019,0.554,0.161,0.796c0.165,0.283,0.464,0.414,0.777,0.449
				c0.166,0.018,0.345-0.003,0.506-0.049c0.35-0.099,0.631-0.305,0.837-0.605c0.135-0.196,0.209-0.44,0.233-0.674
				C217.11,213.713,217.098,213.592,217.085,213.473z"/>
			<path style="fill:#E14A31;" d="M187.723,205.938c-0.002-0.005-0.006-0.009-0.009-0.014c-0.034-0.086-0.045-0.178-0.066-0.267
				c0.031-0.078,0.044-0.162,0.021-0.248c-0.03-0.112-0.108-0.176-0.202-0.211c-0.008-0.019-0.016-0.038-0.024-0.057
				c-0.04-0.096-0.083-0.191-0.126-0.286c-0.048-0.065-0.111-0.109-0.189-0.13c-0.086-0.023-0.173-0.024-0.26-0.005
				c-0.194,0.04-0.381,0.169-0.484,0.339c-0.146,0.24-0.278,0.486-0.38,0.749c-0.059,0.152-0.024,0.342,0.117,0.436
				c0.04,0.027,0.08,0.051,0.124,0.072c0.063,0.03,0.127,0.065,0.197,0.08c0.165,0.035,0.321,0.015,0.477-0.042
				c0.001,0.001,0.002,0.002,0.003,0.003c0.07,0.073,0.114,0.115,0.22,0.13c0.203,0.029,0.419-0.092,0.525-0.265
				C187.714,206.147,187.755,206.029,187.723,205.938z"/>
			<path style="fill:#E14A31;" d="M188.942,200.619c-0.581,0-1.125,1.033-0.354,1.033
				C189.169,201.652,189.713,200.619,188.942,200.619z"/>
			<path style="fill:#E14A31;" d="M193.71,213.238c-0.007-0.051-0.014-0.101-0.02-0.152c-0.014-0.067-0.047-0.121-0.099-0.162
				c-0.042-0.052-0.097-0.085-0.165-0.1c-0.046-0.007-0.092-0.014-0.139-0.02c-0.079-0.003-0.156,0.01-0.228,0.04
				c-0.056,0.012-0.107,0.035-0.154,0.068c-0.079,0.038-0.148,0.09-0.208,0.156c-0.033,0.043-0.067,0.086-0.1,0.129
				c-0.054,0.084-0.085,0.175-0.094,0.274l-0.021,0.165c-0.007,0.093,0.015,0.179,0.067,0.256c0.032,0.031,0.063,0.062,0.095,0.093
				c0.081,0.052,0.17,0.078,0.267,0.078c0.082,0.003,0.161-0.011,0.236-0.041c0.086-0.022,0.165-0.06,0.237-0.115
				c0.076-0.049,0.139-0.11,0.189-0.184c0.054-0.06,0.094-0.13,0.12-0.208C193.726,213.424,193.732,213.332,193.71,213.238z"/>
			<path style="fill:#E14A31;" d="M232.835,209.18c0-0.01-0.009-0.116-0.011-0.126c0-0.001,0-0.003-0.001-0.004
				c0-0.001-0.001-0.003-0.001-0.004c0-0.001-0.001-0.002-0.001-0.003c-0.001-0.001-0.049-0.106-0.049-0.108
				c0,0,0-0.001-0.001-0.001c-0.002-0.003-0.004-0.007-0.007-0.01c-0.027-0.032-0.058-0.061-0.089-0.088
				c-0.049-0.034-0.102-0.053-0.161-0.056c-0.024-0.005-0.048,0.002-0.072,0.001c-0.008-0.001-0.017-0.003-0.025-0.004
				c-0.018,0.002-0.036,0.004-0.054,0.005c-0.012,0.002-0.025-0.003-0.037,0.001c-0.004,0.001-0.008,0.003-0.013,0.004
				c-0.016,0.002-0.032,0.003-0.048,0.005c-0.006,0.002-0.012,0.004-0.018,0.006c-0.01,0.003-0.021,0.005-0.031,0.006
				c0.006-0.001,0.011-0.001,0.017-0.002c-0.006,0.002-0.012,0.004-0.018,0.006c-0.041,0.007-0.083,0.005-0.122,0.021
				c-0.083,0.021-0.158,0.058-0.227,0.11c-0.044,0.038-0.087,0.075-0.131,0.112c-0.058,0.056-0.102,0.121-0.132,0.195
				c-0.027,0.042-0.042,0.087-0.047,0.136c-0.02,0.065-0.021,0.131-0.003,0.198c0.018,0.039,0.035,0.077,0.053,0.116
				c0.053,0.072,0.122,0.12,0.209,0.144c0.05,0.008,0.1,0.016,0.15,0.022c0.005,0.001,0.01,0.001,0.015,0.001
				c0.008,0.001,0.017,0.001,0.025,0.001c0.004,0,0.008,0,0.012-0.001c0.051-0.005,0.104-0.009,0.155-0.015
				c0.002,0,0.004,0,0.006-0.001c0.003-0.001,0.007-0.001,0.01-0.002c0.001,0,0.003-0.001,0.005-0.001
				c0.001,0,0.001-0.001,0.002-0.001c0.026-0.008,0.053-0.017,0.079-0.026c0.026-0.008,0.052-0.017,0.078-0.025
				c0.002-0.001,0.15-0.084,0.152-0.086c0.001-0.001,0.132-0.113,0.133-0.114c0.001-0.001,0.099-0.127,0.1-0.129
				c0.001-0.002,0.065-0.135,0.066-0.137c0.001-0.002,0.001-0.003,0.001-0.004c0-0.001,0.001-0.002,0.001-0.003
				c0.002-0.006,0.027-0.129,0.028-0.135c0-0.001,0-0.003,0-0.004C232.835,209.182,232.835,209.181,232.835,209.18z"/>
			<g>
				<path style="fill:#E14A31;" d="M236.711,201.373c-0.022-0.082-0.068-0.148-0.138-0.196c-0.048-0.045-0.094-0.092-0.145-0.133
					c-0.011-0.009-0.023-0.018-0.035-0.026c-0.005-0.003-0.009-0.006-0.014-0.009c-0.028-0.015-0.122-0.051-0.14-0.06
					c-0.083-0.023-0.118-0.018-0.199-0.01c-0.116,0.012-0.083,0.003-0.233,0.058c-0.002,0.001-0.004,0.001-0.005,0.002
					c-0.108,0.049-0.207,0.115-0.288,0.201c-0.037,0.039-0.072,0.082-0.1,0.128c-0.044,0.072-0.092,0.183-0.093,0.271
					c0,0.002,0.011,0.127,0.011,0.129c0.008,0.041,0.029,0.081,0.053,0.115c0.001,0.001,0.003,0.002,0.004,0.004
					c0,0.001,0.001,0.001,0.001,0.001l0-0.001c0.002,0.003,0.006,0.005,0.008,0.008c0.022,0.034,0.049,0.065,0.087,0.088
					c0.039,0.022,0.079,0.04,0.121,0.056c0.003,0.001,0.007,0.001,0.01,0.002c0.008,0.002,0.016,0.005,0.024,0.008
					c0.001,0,0.002,0.001,0.003,0.001c0.022,0.011,0.044,0.021,0.066,0.033c0.009,0.005,0.018,0.009,0.027,0.014
					c0.054,0.038,0.114,0.059,0.178,0.062c0.069,0.016,0.139,0.014,0.209-0.005c0.079-0.015,0.152-0.044,0.219-0.088
					c0.075-0.036,0.141-0.086,0.197-0.148c0.032-0.041,0.063-0.081,0.095-0.122c0.051-0.079,0.081-0.166,0.089-0.26
					C236.718,201.456,236.715,201.414,236.711,201.373z"/>
				<path style="fill:#E14A31;" d="M236.241,200.948c0.007,0.002,0.01,0.001,0.017,0.003
					C236.238,200.945,236.235,200.945,236.241,200.948z"/>
			</g>
			<path style="fill:#E14A31;" d="M230.724,200.727c-0.053-0.067-0.143-0.118-0.231-0.109c-0.061,0.006-0.122,0.012-0.183,0.018
				c-0.034,0.003-0.069,0.006-0.104,0.009c-0.012-0.083-0.045-0.167-0.116-0.211c-0.099-0.061-0.221-0.077-0.334-0.049
				c-0.133,0.032-0.269,0.099-0.359,0.204c-0.084,0.098-0.155,0.192-0.198,0.314c-0.013,0.037-0.021,0.087-0.025,0.126
				c-0.001,0.017,0.003,0.082,0.012,0.118c0.004,0.016,0.026,0.059,0.023,0.051c-0.008-0.018,0.015,0.038,0.023,0.05
				c0.021,0.029,0.06,0.066,0.079,0.08c0.004,0.003,0.008,0.006,0.013,0.009c0.022,0.014,0.07,0.035,0.095,0.044
				c0.003,0.001,0.006,0.002,0.009,0.003c0.046,0.013,0.094,0.019,0.141,0.021c0.044,0.002,0.087-0.007,0.13-0.013
				c0.216,0.002,0.434-0.04,0.647-0.071c0.055-0.01,0.106-0.031,0.153-0.062c0.052-0.025,0.098-0.06,0.138-0.103
				c0.057-0.065,0.101-0.135,0.119-0.221C230.771,200.868,230.77,200.785,230.724,200.727z"/>
			<path style="fill:#E14A31;" d="M228.127,218.804c-0.544,0-1.053,0.967-0.331,0.967
				C228.34,219.771,228.849,218.804,228.127,218.804z"/>
			<path style="fill:#E14A31;" d="M221.689,221.091c-0.502,0-0.971,0.892-0.306,0.892
				C221.885,221.983,222.354,221.091,221.689,221.091z"/>
			<path style="fill:#E14A31;" d="M210.611,218.341c-0.523,0-1.012,0.93-0.318,0.93C210.815,219.27,211.305,218.341,210.611,218.341
				z"/>
			<path style="fill:#E14A31;" d="M213.996,213.481c-0.028-0.028-0.056-0.055-0.084-0.083c-0.072-0.046-0.152-0.069-0.238-0.07
				c-0.046,0.005-0.093,0.009-0.139,0.014c-0.103,0.023-0.197,0.064-0.283,0.125c-0.063,0.053-0.136,0.107-0.189,0.173
				c-0.035,0.043-0.07,0.087-0.102,0.132c-0.005,0.007-0.009,0.014-0.014,0.021c-0.031,0.051-0.054,0.107-0.079,0.161
				c-0.029,0.063-0.039,0.141-0.051,0.206c-0.006,0.033-0.007,0.067-0.005,0.1c-0.008,0.061,0.003,0.117,0.034,0.168
				c0.018,0.056,0.053,0.1,0.105,0.132c0.051,0.036,0.106,0.055,0.167,0.058c0.065,0.014,0.13,0.013,0.195-0.004
				c0.046-0.015,0.092-0.03,0.138-0.045c0.096-0.042,0.18-0.101,0.252-0.177c0.03-0.038,0.059-0.076,0.089-0.114
				c0.04-0.062,0.062-0.129,0.074-0.201c0.018-0.02,0.042-0.034,0.058-0.056c0.049-0.054,0.084-0.115,0.107-0.185
				c0.025-0.061,0.032-0.124,0.021-0.187C214.052,213.587,214.034,213.531,213.996,213.481z"/>
			<path style="fill:#E14A31;" d="M202.765,214.729c-0.02-0.075-0.061-0.134-0.125-0.178c-0.034-0.016-0.068-0.032-0.102-0.048
				c-0.038-0.01-0.075-0.014-0.113-0.016c-0.001-0.042-0.003-0.083-0.024-0.119c-0.017-0.052-0.049-0.093-0.098-0.123
				c-0.033-0.015-0.066-0.03-0.098-0.046c-0.059-0.018-0.118-0.021-0.177-0.011c-0.044,0-0.086,0.009-0.126,0.027
				c-0.069,0.018-0.132,0.048-0.189,0.092l-0.109,0.094c-0.061,0.063-0.107,0.136-0.137,0.219c-0.018,0.083-0.042,0.173-0.042,0.26
				c0,0.057,0.005,0.114,0.014,0.169c0.003,0.018,0.007,0.035,0.014,0.051c0.017,0.041,0.034,0.081,0.055,0.12
				c0.004,0.007,0.008,0.014,0.013,0.021c0.02,0.026,0.075,0.083,0.117,0.106c0.003,0.002,0.006,0.003,0.01,0.005
				c0.036,0.018,0.074,0.036,0.112,0.052c0.008,0.003,0.016,0.006,0.024,0.008c0.027,0.007,0.057,0.01,0.084,0.013
				c0.028,0.004,0.058,0.01,0.087,0.011c0.011,0,0.021,0,0.032,0c0.054-0.003,0.109-0.009,0.163-0.016
				c0.027-0.004,0.054-0.01,0.08-0.018c0.072-0.014,0.138-0.04,0.199-0.08c0.068-0.033,0.128-0.078,0.179-0.135
				c0.051-0.049,0.089-0.105,0.114-0.17c0.032-0.054,0.049-0.113,0.053-0.177C202.771,214.803,202.768,214.766,202.765,214.729z"/>
			<path style="fill:#E14A31;" d="M198.988,216.371c-0.02-0.098-0.041-0.196-0.061-0.294c-0.009-0.042-0.029-0.075-0.061-0.1
				c-0.026-0.032-0.06-0.052-0.102-0.062c-0.029-0.004-0.057-0.008-0.086-0.012c-0.049-0.002-0.096,0.006-0.141,0.025
				c-0.034,0.008-0.066,0.022-0.095,0.042c-0.049,0.023-0.092,0.056-0.129,0.096c-0.021,0.027-0.041,0.053-0.062,0.079
				c-0.033,0.052-0.052,0.108-0.058,0.169c-0.021,0.112-0.042,0.223-0.063,0.335c-0.005,0.065,0.01,0.124,0.047,0.179
				c0.022,0.022,0.044,0.043,0.066,0.065c0.057,0.036,0.119,0.054,0.186,0.054c0.057,0.002,0.112-0.007,0.165-0.029
				c0.06-0.015,0.115-0.042,0.165-0.08c0.053-0.034,0.097-0.077,0.132-0.128c0.038-0.042,0.066-0.09,0.083-0.145
				C198.999,216.501,199.003,216.436,198.988,216.371z"/>
			<path style="fill:#E14A31;" d="M195.936,213.801c-0.01-0.049-0.034-0.088-0.072-0.117c-0.031-0.037-0.07-0.061-0.119-0.072
				l-0.138-0.036c-0.076-0.02-0.152-0.021-0.229-0.004c-0.088,0.02-0.169,0.055-0.243,0.107c-0.035,0.03-0.07,0.06-0.105,0.09
				c-0.059,0.061-0.102,0.131-0.131,0.21c-0.022,0.053-0.028,0.106-0.018,0.16c-0.001,0.053,0.014,0.101,0.047,0.144
				c0.087,0.124,0.257,0.15,0.396,0.119l0.163-0.036c0.037-0.012,0.075-0.024,0.112-0.036c0.059-0.024,0.112-0.059,0.157-0.103
				c0.034-0.023,0.062-0.053,0.084-0.087c0.038-0.042,0.066-0.09,0.083-0.145c0.007-0.033,0.014-0.066,0.02-0.099
				C195.941,213.863,195.939,213.832,195.936,213.801z"/>
			<path style="fill:#E14A31;" d="M223.283,223.695c-0.044-0.067-0.103-0.113-0.177-0.138c-0.071-0.041-0.148-0.059-0.232-0.056
				c-0.124,0-0.244,0.025-0.357,0.076c-0.119,0.052-0.235,0.13-0.326,0.225c-0.011,0.007-0.024,0.009-0.034,0.017
				c-0.045,0.038-0.089,0.076-0.134,0.115c-0.034,0.043-0.067,0.087-0.101,0.13c-0.044,0.063-0.071,0.132-0.081,0.207
				c-0.02,0.066-0.021,0.133-0.003,0.201c0.009,0.035,0.017,0.07,0.022,0.106c0.003,0.021,0.004,0.041,0.008,0.062
				c0.001,0.007,0.003,0.013,0.005,0.02c0.001,0.002,0.001,0.003,0.002,0.005c0.01,0.025,0.044,0.101,0.057,0.124
				c0.002,0.003,0.003,0.006,0.005,0.009c0.002,0.003,0.004,0.005,0.006,0.008c0.001,0.002,0.003,0.003,0.004,0.005
				c0.028,0.031,0.069,0.07,0.099,0.098c0.007,0.007,0.015,0.013,0.023,0.019c0.033,0.025,0.068,0.048,0.103,0.071
				c0.179,0.12,0.416,0.092,0.603,0.011c0.115-0.051,0.217-0.122,0.304-0.213c0.079-0.082,0.139-0.177,0.177-0.284
				c0.014-0.043,0.026-0.086,0.041-0.129c0.026-0.073,0.04-0.151,0.053-0.226c0.01-0.057,0.006-0.116,0.008-0.174
				C223.367,223.879,223.341,223.783,223.283,223.695z"/>
			<path style="fill:#E14A31;" d="M236.983,206.889c-0.02-0.05-0.043-0.103-0.069-0.15c-0.004-0.007-0.008-0.014-0.014-0.02
				c-0.035-0.043-0.079-0.081-0.119-0.119c-0.006-0.006-0.012-0.011-0.019-0.016c-0.014-0.011-0.029-0.019-0.044-0.027
				c-0.058-0.029-0.121-0.065-0.186-0.081c-0.07-0.017-0.143-0.027-0.215-0.032c-0.024-0.002-0.048-0.001-0.071,0.001
				c-0.082,0.007-0.168,0.011-0.249,0.03c-0.014,0.003-0.027,0.007-0.041,0.011c-0.007,0.002-0.014,0.004-0.021,0.007
				c-0.042,0.013-0.142,0.042-0.183,0.059c-0.002,0.001-0.005,0.002-0.007,0.003c-0.059,0.033-0.117,0.066-0.175,0.099
				c-0.014,0.01-0.027,0.02-0.04,0.03c-0.007,0.005-0.013,0.01-0.019,0.016c-0.007,0.006-0.022,0.018-0.033,0.028
				c-0.013,0.008-0.028,0.014-0.041,0.022c-0.098,0.061-0.178,0.162-0.243,0.254c-0.039,0.055-0.068,0.118-0.089,0.182
				c-0.016,0.048-0.024,0.1-0.032,0.15c-0.002,0.014-0.004,0.028-0.004,0.043c0.001,0.147,0.034,0.258,0.109,0.385
				c0.021,0.035,0.046,0.068,0.073,0.098c0.052,0.058,0.107,0.114,0.168,0.162c0.072,0.056,0.16,0.096,0.244,0.127
				c0.018,0.007,0.037,0.012,0.057,0.015c0.062,0.011,0.13,0.026,0.194,0.024c0.059-0.002,0.121-0.009,0.179-0.017
				c0.009-0.001,0.017-0.003,0.026-0.005c0.061-0.015,0.123-0.037,0.182-0.058c0.009-0.003,0.017-0.006,0.025-0.01
				c0.007-0.003,0.014-0.007,0.02-0.01c0.06-0.032,0.123-0.064,0.179-0.102c0.007-0.005,0.014-0.01,0.02-0.015
				c0.054-0.043,0.108-0.088,0.158-0.136c0.053-0.051,0.097-0.116,0.139-0.174c0.01-0.014,0.019-0.027,0.027-0.042
				c0.034-0.062,0.066-0.127,0.092-0.193c0.006-0.016,0.011-0.033,0.015-0.05c0.019-0.077,0.044-0.166,0.04-0.248
				C237.014,207.051,237.013,206.963,236.983,206.889z"/>
			<path style="fill:#E14A31;" d="M221.425,202.693l-0.09-0.089c-0.078-0.05-0.163-0.074-0.255-0.075
				c-0.079-0.003-0.154,0.01-0.226,0.04c-0.082,0.021-0.158,0.058-0.227,0.109c-0.072,0.047-0.132,0.105-0.18,0.176
				c-0.052,0.058-0.09,0.124-0.114,0.199c-0.009,0.045-0.019,0.09-0.028,0.136c-0.007,0.089,0.014,0.171,0.064,0.245l0.091,0.089
				c0.077,0.05,0.162,0.074,0.255,0.074c0.079,0.003,0.154-0.01,0.226-0.04c0.082-0.021,0.158-0.057,0.227-0.109
				c0.072-0.047,0.132-0.105,0.18-0.176c0.052-0.058,0.09-0.124,0.114-0.199c0.009-0.045,0.019-0.09,0.028-0.136
				C221.496,202.848,221.475,202.767,221.425,202.693z"/>
			<path style="fill:#E14A31;" d="M196.003,206.251c-0.003-0.02-0.006-0.04-0.012-0.06c-0.017-0.06-0.047-0.118-0.075-0.172
				c-0.008-0.017-0.018-0.033-0.029-0.047c-0.038-0.048-0.084-0.092-0.132-0.131c-0.049-0.039-0.115-0.062-0.17-0.086
				c-0.019-0.008-0.038-0.015-0.058-0.019c-0.068-0.015-0.14-0.027-0.211-0.028c-0.078,0-0.158,0.01-0.234,0.022
				c-0.101,0.016-0.194,0.059-0.282,0.109c-0.039,0.022-0.079,0.043-0.117,0.068c-0.029,0.019-0.057,0.041-0.084,0.063
				c-0.044,0.037-0.087,0.075-0.131,0.112c-0.058,0.056-0.102,0.121-0.132,0.195c-0.032,0.067-0.058,0.148-0.061,0.227
				c-0.03,0.052-0.059,0.104-0.083,0.163c-0.027,0.065-0.039,0.138-0.051,0.206c-0.011,0.067-0.002,0.138,0.008,0.205
				c0.005,0.033,0.014,0.064,0.027,0.095c0.028,0.065,0.055,0.133,0.1,0.188c0.06,0.074,0.137,0.152,0.224,0.197
				c0.12,0.062,0.215,0.095,0.353,0.1c0.065,0.002,0.133-0.006,0.196-0.018c0.068-0.013,0.136-0.038,0.2-0.063
				c0.069-0.028,0.134-0.069,0.196-0.108c0.064-0.04,0.119-0.095,0.175-0.145c0.072-0.064,0.13-0.143,0.184-0.222
				c0.053-0.079,0.093-0.168,0.129-0.255c0.018-0.043,0.032-0.088,0.042-0.134c0.019-0.087,0.043-0.179,0.043-0.27
				C196.018,206.38,196.01,206.315,196.003,206.251z"/>
			<path style="fill:#E14A31;" d="M186.281,196.95c-0.01-0.037-0.029-0.07-0.046-0.104c0,0,0-0.001,0-0.001
				c0.008,0.017,0.015,0.034,0.023,0.051c-0.012-0.027-0.017-0.056-0.022-0.084c0.001-0.009-0.001-0.018,0.001-0.028
				c0.007-0.051-0.003-0.097-0.028-0.14c-0.015-0.047-0.044-0.083-0.087-0.11c-0.029-0.014-0.059-0.027-0.088-0.041
				c-0.052-0.016-0.105-0.019-0.158-0.009c-0.039,0-0.077,0.008-0.113,0.024c-0.062,0.016-0.118,0.043-0.169,0.082
				c-0.033,0.028-0.065,0.056-0.098,0.084c-0.055,0.057-0.096,0.122-0.122,0.196c-0.011,0.047-0.022,0.094-0.029,0.142
				c-0.002,0.016-0.004,0.032-0.005,0.048c-0.001,0.015,0,0.029,0.001,0.044c0.003,0.046,0.005,0.094,0.014,0.139
				c0.003,0.014,0.006,0.028,0.01,0.042c0.002,0.007,0.005,0.015,0.007,0.022c0.001,0.003,0.002,0.006,0.004,0.01
				c0.001,0.002,0.001,0.003,0.002,0.005c0.014,0.03,0.027,0.06,0.041,0.089c0.005,0.007,0.009,0.012,0.015,0.018
				c0.027,0.027,0.054,0.055,0.082,0.08c0.012,0.011,0.024,0.02,0.037,0.03c0.029,0.014,0.058,0.027,0.087,0.04
				c0.052,0.016,0.104,0.019,0.156,0.009c0.039,0,0.076-0.008,0.112-0.024c0.061-0.016,0.117-0.043,0.168-0.081l0.097-0.083
				l0.073-0.094c0.032-0.046,0.051-0.096,0.058-0.15c0.015-0.048,0.016-0.096,0.002-0.146
				C186.294,196.991,186.286,196.971,186.281,196.95z"/>
		</g>
		<g style="opacity:0.47;">
			<path style="fill:#E14A31;" d="M135.203,207.12c0.018-0.056,0.053-0.1,0.105-0.132c0.051-0.036,0.106-0.055,0.167-0.058
				c0.065-0.014,0.13-0.013,0.195,0.004c0.046,0.015,0.092,0.03,0.138,0.044c0.095,0.042,0.179,0.101,0.252,0.177
				c0.03,0.038,0.059,0.076,0.089,0.114c0.048,0.074,0.075,0.155,0.083,0.243v0.161c0.008,0.061-0.003,0.117-0.034,0.168
				c-0.018,0.056-0.053,0.1-0.105,0.132c-0.051,0.036-0.106,0.055-0.167,0.058c-0.065,0.014-0.13,0.013-0.195-0.004
				c-0.046-0.015-0.092-0.03-0.138-0.045c-0.095-0.042-0.179-0.101-0.252-0.176c-0.03-0.038-0.059-0.076-0.089-0.114
				c-0.048-0.074-0.075-0.155-0.083-0.243v-0.161C135.162,207.227,135.173,207.171,135.203,207.12z"/>
			<path style="fill:#E14A31;" d="M129.923,205.82c0.512,0,0.992,0.911,0.312,0.911C129.722,206.731,129.243,205.82,129.923,205.82z
				"/>
			<path style="fill:#E14A31;" d="M123.764,205.443c0.008-0.075,0.023-0.148,0.046-0.221c0.008-0.027,0.022-0.053,0.035-0.079
				c0.012-0.076,0.039-0.148,0.109-0.191c0.099-0.061,0.202-0.06,0.315-0.047c0.127-0.007,0.257,0.005,0.365,0.064
				c0.053,0.029,0.1,0.059,0.149,0.089c0.211,0.097,0.405,0.231,0.559,0.399c0.284,0.309,0.445,0.704,0.476,1.122
				c0.008,0.108-0.031,0.208-0.107,0.283c-0.083,0.081-0.177,0.106-0.293,0.116c-0.168,0.015-0.333,0.006-0.5-0.019
				c-0.207-0.031-0.392-0.118-0.57-0.224c-0.087-0.051-0.165-0.122-0.236-0.191c-0.071-0.068-0.133-0.149-0.184-0.233
				c-0.101-0.165-0.16-0.349-0.178-0.542C123.739,205.661,123.752,205.55,123.764,205.443z"/>
			<path style="fill:#E14A31;" d="M115.204,207.629c0.014-0.066,0.046-0.119,0.097-0.159c0.042-0.051,0.096-0.084,0.162-0.098
				c0.017-0.007,0.034-0.013,0.05-0.02c0.038-0.006,0.076-0.011,0.115-0.017c0.066-0.002,0.129,0.009,0.189,0.033
				c0.046,0.01,0.088,0.029,0.127,0.056c0.065,0.032,0.123,0.075,0.172,0.129l0.063,0.058c0.033,0.042,0.066,0.084,0.098,0.126
				c0.043,0.062,0.069,0.129,0.078,0.202c0.016,0.043,0.018,0.087,0.008,0.132c0.003,0.044-0.007,0.085-0.032,0.122
				c-0.02,0.062-0.059,0.11-0.116,0.146l-0.117,0.054l-0.136,0.02c-0.078,0.003-0.153-0.01-0.224-0.039
				c-0.055-0.012-0.105-0.034-0.151-0.067c-0.053-0.023-0.1-0.056-0.14-0.098c-0.066-0.049-0.121-0.11-0.163-0.182
				c-0.021-0.045-0.043-0.089-0.064-0.134c-0.009-0.045-0.019-0.09-0.028-0.135C115.197,207.715,115.2,207.672,115.204,207.629z"/>
			<path style="fill:#E14A31;" d="M112.539,210.702c0.623,0,1.207,1.108,0.38,1.108C112.296,211.81,111.713,210.702,112.539,210.702
				z"/>
			<path style="fill:#E14A31;" d="M122.963,213.473c0.009-0.076,0.026-0.151,0.053-0.223c0.084-0.22,0.207-0.415,0.412-0.543
				c0.249-0.155,0.542-0.201,0.829-0.15c0.082,0.015,0.164,0.042,0.245,0.075c0.27,0.079,0.496,0.258,0.667,0.492
				c0.167,0.229,0.259,0.513,0.294,0.792c0.035,0.278-0.019,0.554-0.161,0.796c-0.165,0.283-0.464,0.414-0.777,0.449
				c-0.166,0.018-0.345-0.003-0.506-0.049c-0.35-0.099-0.631-0.305-0.837-0.605c-0.134-0.196-0.209-0.44-0.233-0.674
				C122.938,213.713,122.95,213.592,122.963,213.473z"/>
			<path style="fill:#E14A31;" d="M152.325,205.938c0.002-0.005,0.006-0.009,0.009-0.014c0.034-0.086,0.045-0.178,0.066-0.267
				c-0.031-0.078-0.044-0.162-0.021-0.248c0.03-0.112,0.108-0.176,0.202-0.211c0.008-0.019,0.016-0.038,0.024-0.057
				c0.04-0.096,0.083-0.191,0.126-0.286c0.048-0.065,0.111-0.109,0.189-0.13c0.086-0.023,0.173-0.024,0.26-0.005
				c0.194,0.04,0.381,0.169,0.484,0.339c0.146,0.24,0.278,0.486,0.38,0.749c0.059,0.152,0.024,0.342-0.118,0.436
				c-0.04,0.027-0.08,0.051-0.123,0.072c-0.063,0.03-0.127,0.065-0.197,0.08c-0.165,0.035-0.321,0.015-0.476-0.042
				c-0.001,0.001-0.002,0.002-0.003,0.003c-0.07,0.073-0.114,0.115-0.22,0.13c-0.203,0.029-0.42-0.092-0.525-0.265
				C152.334,206.147,152.293,206.029,152.325,205.938z"/>
			<path style="fill:#E14A31;" d="M151.106,200.619c0.581,0,1.125,1.033,0.354,1.033
				C150.879,201.652,150.335,200.619,151.106,200.619z"/>
			<path style="fill:#E14A31;" d="M146.338,213.238c0.007-0.051,0.014-0.101,0.02-0.152c0.014-0.067,0.047-0.121,0.099-0.162
				c0.042-0.052,0.097-0.085,0.165-0.1c0.046-0.007,0.093-0.014,0.139-0.02c0.079-0.003,0.156,0.01,0.228,0.04
				c0.056,0.012,0.107,0.035,0.153,0.068c0.079,0.038,0.149,0.09,0.208,0.156c0.033,0.043,0.067,0.086,0.1,0.129
				c0.054,0.084,0.085,0.175,0.094,0.274l0.021,0.165c0.007,0.093-0.015,0.179-0.067,0.256c-0.032,0.031-0.063,0.062-0.095,0.093
				c-0.081,0.052-0.17,0.078-0.267,0.078c-0.082,0.003-0.161-0.011-0.236-0.041c-0.086-0.022-0.165-0.06-0.237-0.115
				c-0.076-0.049-0.139-0.11-0.189-0.184c-0.055-0.06-0.094-0.13-0.12-0.208C146.322,213.424,146.317,213.332,146.338,213.238z"/>
			<path style="fill:#E14A31;" d="M107.213,209.18c0-0.01,0.009-0.116,0.011-0.126c0-0.001,0.001-0.003,0.001-0.004
				c0-0.001,0.001-0.003,0.001-0.004c0-0.001,0.001-0.002,0.001-0.003c0.001-0.001,0.049-0.106,0.049-0.108c0,0,0-0.001,0.001-0.001
				c0.002-0.003,0.004-0.007,0.007-0.01c0.027-0.032,0.058-0.061,0.089-0.088c0.049-0.034,0.102-0.053,0.16-0.056
				c0.024-0.005,0.048,0.002,0.072,0.001c0.008-0.001,0.017-0.003,0.025-0.004c0.018,0.002,0.036,0.004,0.054,0.005
				c0.012,0.002,0.024-0.003,0.037,0.001c0.004,0.001,0.008,0.003,0.013,0.004c0.016,0.002,0.032,0.003,0.048,0.005
				c0.006,0.002,0.012,0.004,0.018,0.006c0.01,0.003,0.021,0.005,0.031,0.006c-0.006-0.001-0.011-0.001-0.017-0.002
				c0.006,0.002,0.012,0.004,0.018,0.006c0.041,0.007,0.083,0.005,0.122,0.021c0.083,0.021,0.158,0.058,0.227,0.11
				c0.044,0.038,0.087,0.075,0.131,0.112c0.058,0.056,0.102,0.121,0.132,0.195c0.027,0.042,0.042,0.087,0.047,0.136
				c0.02,0.065,0.021,0.131,0.003,0.198c-0.018,0.039-0.035,0.077-0.053,0.116c-0.053,0.072-0.122,0.12-0.209,0.144
				c-0.05,0.008-0.1,0.016-0.15,0.022c-0.005,0.001-0.01,0.001-0.015,0.001c-0.008,0.001-0.017,0.001-0.025,0.001
				c-0.004,0-0.008,0-0.012-0.001c-0.051-0.005-0.104-0.009-0.155-0.015c-0.002,0-0.004,0-0.006-0.001
				c-0.003-0.001-0.007-0.001-0.01-0.002c-0.002,0-0.003-0.001-0.005-0.001c-0.001,0-0.001-0.001-0.002-0.001
				c-0.026-0.008-0.053-0.017-0.079-0.026c-0.026-0.008-0.052-0.017-0.078-0.025c-0.002-0.001-0.15-0.084-0.153-0.086
				c-0.001-0.001-0.132-0.113-0.133-0.114c-0.001-0.001-0.099-0.127-0.1-0.129c-0.001-0.002-0.065-0.135-0.066-0.137
				c-0.001-0.002-0.001-0.003-0.001-0.004c0-0.001-0.001-0.002-0.001-0.003c-0.002-0.006-0.027-0.129-0.028-0.135
				c0-0.001,0-0.003,0-0.004C107.213,209.182,107.213,209.181,107.213,209.18z"/>
			<g>
				<path style="fill:#E14A31;" d="M103.326,201.497c0.008,0.094,0.038,0.18,0.089,0.26c0.032,0.041,0.063,0.081,0.095,0.122
					c0.057,0.063,0.122,0.112,0.197,0.148c0.067,0.044,0.14,0.073,0.219,0.088c0.07,0.018,0.14,0.02,0.209,0.005
					c0.065-0.003,0.124-0.024,0.179-0.062c0.009-0.005,0.018-0.009,0.027-0.014c0.022-0.011,0.044-0.022,0.066-0.033
					c0.001,0,0.002-0.001,0.003-0.001c0.008-0.003,0.016-0.006,0.024-0.008c0.003-0.001,0.007-0.002,0.01-0.002
					c0.041-0.016,0.082-0.034,0.121-0.056c0.038-0.023,0.065-0.054,0.087-0.088c0.002-0.003,0.006-0.005,0.008-0.008l0,0.001
					c0-0.001,0.001-0.001,0.001-0.001c0.001-0.001,0.003-0.002,0.004-0.004c0.024-0.034,0.044-0.074,0.052-0.115
					c0-0.002,0.011-0.127,0.011-0.129c0-0.088-0.049-0.199-0.093-0.271c-0.028-0.046-0.063-0.089-0.1-0.128
					c-0.082-0.086-0.18-0.152-0.289-0.201c-0.002-0.001-0.004-0.001-0.005-0.002c-0.15-0.055-0.117-0.047-0.233-0.058
					c-0.081-0.008-0.116-0.013-0.199,0.01c-0.017,0.009-0.112,0.045-0.14,0.06c-0.005,0.003-0.009,0.005-0.014,0.009
					c-0.012,0.008-0.023,0.017-0.035,0.026c-0.051,0.042-0.097,0.089-0.145,0.133c-0.07,0.048-0.116,0.114-0.138,0.196
					C103.334,201.414,103.33,201.456,103.326,201.497z"/>
				<path style="fill:#E14A31;" d="M103.807,200.948c-0.007,0.002-0.01,0.001-0.017,0.003
					C103.811,200.945,103.813,200.945,103.807,200.948z"/>
			</g>
			<path style="fill:#E14A31;" d="M109.324,200.727c0.053-0.067,0.143-0.118,0.231-0.109c0.061,0.006,0.122,0.012,0.183,0.018
				c0.034,0.003,0.069,0.006,0.104,0.009c0.012-0.083,0.045-0.167,0.116-0.211c0.099-0.061,0.221-0.077,0.334-0.049
				c0.132,0.032,0.269,0.099,0.359,0.204c0.084,0.098,0.155,0.192,0.198,0.314c0.013,0.037,0.022,0.087,0.025,0.126
				c0.001,0.017-0.003,0.082-0.012,0.118c-0.004,0.016-0.026,0.059-0.023,0.051c0.008-0.018-0.015,0.038-0.023,0.05
				c-0.021,0.029-0.06,0.066-0.079,0.08c-0.004,0.003-0.008,0.006-0.013,0.009c-0.022,0.014-0.07,0.035-0.095,0.044
				c-0.003,0.001-0.006,0.002-0.009,0.003c-0.046,0.013-0.094,0.019-0.142,0.021c-0.044,0.002-0.087-0.007-0.13-0.013
				c-0.217,0.002-0.434-0.04-0.648-0.071c-0.055-0.01-0.106-0.031-0.153-0.062c-0.052-0.025-0.098-0.06-0.137-0.103
				c-0.058-0.065-0.101-0.135-0.119-0.221C109.277,200.868,109.278,200.785,109.324,200.727z"/>
			<path style="fill:#E14A31;" d="M111.921,218.804c0.544,0,1.053,0.967,0.331,0.967
				C111.709,219.771,111.199,218.804,111.921,218.804z"/>
			<path style="fill:#E14A31;" d="M118.36,221.091c0.502,0,0.972,0.892,0.306,0.892C118.163,221.983,117.694,221.091,118.36,221.091
				z"/>
			<path style="fill:#E14A31;" d="M129.437,218.341c0.523,0,1.012,0.93,0.319,0.93C129.233,219.27,128.744,218.341,129.437,218.341z
				"/>
			<path style="fill:#E14A31;" d="M126.052,213.481c0.028-0.028,0.056-0.055,0.084-0.083c0.072-0.046,0.152-0.069,0.238-0.07
				c0.046,0.005,0.093,0.009,0.139,0.014c0.103,0.023,0.197,0.064,0.283,0.125c0.063,0.053,0.136,0.107,0.189,0.173
				c0.035,0.043,0.07,0.087,0.102,0.132c0.005,0.007,0.009,0.014,0.014,0.021c0.031,0.051,0.055,0.107,0.079,0.161
				c0.029,0.063,0.039,0.141,0.051,0.206c0.006,0.033,0.007,0.067,0.005,0.1c0.008,0.061-0.003,0.117-0.034,0.168
				c-0.018,0.056-0.053,0.1-0.105,0.132c-0.051,0.036-0.106,0.055-0.167,0.058c-0.065,0.014-0.13,0.013-0.195-0.004
				c-0.046-0.015-0.092-0.03-0.138-0.045c-0.095-0.042-0.179-0.101-0.252-0.177c-0.03-0.038-0.059-0.076-0.089-0.114
				c-0.04-0.062-0.062-0.129-0.074-0.201c-0.018-0.02-0.042-0.034-0.058-0.056c-0.049-0.054-0.084-0.115-0.107-0.185
				c-0.025-0.061-0.032-0.124-0.021-0.187C125.996,213.587,126.014,213.531,126.052,213.481z"/>
			<path style="fill:#E14A31;" d="M137.283,214.729c0.02-0.075,0.061-0.134,0.125-0.178c0.034-0.016,0.068-0.032,0.102-0.048
				c0.037-0.01,0.075-0.014,0.113-0.016c0.001-0.042,0.002-0.083,0.024-0.119c0.017-0.052,0.049-0.093,0.098-0.123
				c0.033-0.015,0.066-0.03,0.098-0.046c0.059-0.018,0.118-0.021,0.177-0.011c0.044,0,0.086,0.009,0.126,0.027
				c0.069,0.018,0.132,0.048,0.189,0.092l0.109,0.094c0.061,0.063,0.107,0.136,0.137,0.219c0.018,0.083,0.042,0.173,0.042,0.26
				c0,0.057-0.005,0.114-0.014,0.169c-0.003,0.018-0.007,0.035-0.014,0.051c-0.017,0.041-0.034,0.081-0.055,0.12
				c-0.004,0.007-0.008,0.014-0.013,0.021c-0.02,0.026-0.075,0.083-0.117,0.106c-0.003,0.002-0.007,0.003-0.01,0.005
				c-0.036,0.018-0.074,0.036-0.112,0.052c-0.008,0.003-0.016,0.006-0.024,0.008c-0.027,0.007-0.057,0.01-0.084,0.013
				c-0.028,0.004-0.058,0.01-0.087,0.011c-0.011,0-0.021,0-0.032,0c-0.055-0.003-0.109-0.009-0.163-0.016
				c-0.027-0.004-0.054-0.01-0.08-0.018c-0.072-0.014-0.138-0.04-0.199-0.08c-0.068-0.033-0.128-0.078-0.179-0.135
				c-0.051-0.049-0.089-0.105-0.114-0.17c-0.032-0.054-0.049-0.113-0.053-0.177C137.277,214.803,137.28,214.766,137.283,214.729z"/>
			<path style="fill:#E14A31;" d="M141.06,216.371c0.02-0.098,0.041-0.196,0.061-0.294c0.009-0.042,0.029-0.075,0.061-0.1
				c0.026-0.032,0.06-0.052,0.102-0.062c0.029-0.004,0.057-0.008,0.086-0.012c0.049-0.002,0.096,0.006,0.141,0.025
				c0.034,0.008,0.066,0.022,0.095,0.042c0.049,0.023,0.092,0.056,0.129,0.096c0.021,0.027,0.041,0.053,0.062,0.079
				c0.033,0.052,0.052,0.108,0.058,0.169c0.021,0.112,0.042,0.223,0.063,0.335c0.005,0.065-0.01,0.124-0.047,0.179
				c-0.022,0.022-0.044,0.043-0.066,0.065c-0.057,0.036-0.119,0.054-0.186,0.054c-0.057,0.002-0.112-0.007-0.165-0.029
				c-0.06-0.015-0.115-0.042-0.166-0.08c-0.053-0.034-0.097-0.077-0.132-0.128c-0.038-0.042-0.066-0.09-0.083-0.145
				C141.049,216.501,141.045,216.436,141.06,216.371z"/>
			<path style="fill:#E14A31;" d="M144.112,213.801c0.01-0.049,0.034-0.088,0.072-0.117c0.031-0.037,0.07-0.061,0.119-0.072
				l0.138-0.036c0.076-0.02,0.152-0.021,0.229-0.004c0.088,0.02,0.169,0.055,0.243,0.107c0.035,0.03,0.07,0.06,0.105,0.09
				c0.059,0.061,0.103,0.131,0.131,0.21c0.022,0.053,0.028,0.106,0.018,0.16c0.001,0.053-0.014,0.101-0.047,0.144
				c-0.087,0.124-0.257,0.15-0.396,0.119l-0.163-0.036c-0.037-0.012-0.075-0.024-0.112-0.036c-0.059-0.024-0.112-0.059-0.157-0.103
				c-0.034-0.023-0.062-0.053-0.084-0.087c-0.038-0.042-0.066-0.09-0.083-0.145c-0.007-0.033-0.014-0.066-0.02-0.099
				C144.107,213.863,144.109,213.832,144.112,213.801z"/>
			<path style="fill:#E14A31;" d="M116.765,223.695c0.044-0.067,0.103-0.113,0.177-0.138c0.071-0.041,0.148-0.059,0.232-0.056
				c0.125,0,0.244,0.025,0.358,0.076c0.119,0.052,0.235,0.13,0.326,0.225c0.011,0.007,0.024,0.009,0.034,0.017
				c0.045,0.038,0.089,0.076,0.134,0.115c0.034,0.043,0.068,0.087,0.101,0.13c0.044,0.063,0.071,0.132,0.08,0.207
				c0.021,0.066,0.021,0.133,0.003,0.201c-0.009,0.035-0.017,0.07-0.022,0.106c-0.003,0.021-0.004,0.041-0.008,0.062
				c-0.001,0.007-0.003,0.013-0.005,0.02c-0.001,0.002-0.001,0.003-0.002,0.005c-0.01,0.025-0.044,0.101-0.057,0.124
				c-0.002,0.003-0.003,0.006-0.005,0.009c-0.002,0.003-0.004,0.005-0.006,0.008c-0.001,0.002-0.003,0.003-0.004,0.005
				c-0.028,0.031-0.069,0.07-0.099,0.098c-0.007,0.007-0.015,0.013-0.023,0.019c-0.033,0.025-0.068,0.048-0.103,0.071
				c-0.179,0.12-0.416,0.092-0.603,0.011c-0.115-0.051-0.217-0.122-0.304-0.213c-0.079-0.082-0.139-0.177-0.177-0.284
				c-0.014-0.043-0.026-0.086-0.041-0.129c-0.026-0.073-0.039-0.151-0.053-0.226c-0.01-0.057-0.006-0.116-0.008-0.174
				C116.682,223.879,116.707,223.783,116.765,223.695z"/>
			<path style="fill:#E14A31;" d="M103.065,206.889c0.02-0.05,0.043-0.103,0.069-0.15c0.004-0.007,0.008-0.014,0.014-0.02
				c0.035-0.043,0.079-0.081,0.119-0.119c0.006-0.006,0.012-0.011,0.019-0.016c0.014-0.011,0.029-0.019,0.044-0.027
				c0.058-0.029,0.121-0.065,0.186-0.081c0.07-0.017,0.143-0.027,0.215-0.032c0.024-0.002,0.048-0.001,0.071,0.001
				c0.082,0.007,0.168,0.011,0.249,0.03c0.014,0.003,0.027,0.007,0.041,0.011c0.007,0.002,0.014,0.004,0.021,0.007
				c0.042,0.013,0.142,0.042,0.183,0.059c0.002,0.001,0.005,0.002,0.007,0.003c0.058,0.033,0.117,0.066,0.175,0.099
				c0.014,0.01,0.027,0.02,0.04,0.03c0.006,0.005,0.013,0.01,0.019,0.016c0.007,0.006,0.022,0.018,0.034,0.028
				c0.013,0.008,0.028,0.014,0.041,0.022c0.098,0.061,0.178,0.162,0.243,0.254c0.039,0.055,0.068,0.118,0.089,0.182
				c0.016,0.048,0.024,0.1,0.032,0.15c0.002,0.014,0.004,0.028,0.004,0.043c-0.001,0.147-0.034,0.258-0.109,0.385
				c-0.021,0.035-0.046,0.068-0.073,0.098c-0.052,0.058-0.107,0.114-0.168,0.162c-0.072,0.056-0.16,0.096-0.244,0.127
				c-0.019,0.007-0.037,0.012-0.057,0.015c-0.062,0.011-0.13,0.026-0.194,0.024c-0.059-0.002-0.121-0.009-0.179-0.017
				c-0.009-0.001-0.017-0.003-0.026-0.005c-0.061-0.015-0.123-0.037-0.182-0.058c-0.009-0.003-0.017-0.006-0.026-0.01
				c-0.007-0.003-0.014-0.007-0.02-0.01c-0.06-0.032-0.123-0.064-0.179-0.102c-0.007-0.005-0.014-0.01-0.02-0.015
				c-0.054-0.043-0.108-0.088-0.158-0.136c-0.053-0.051-0.097-0.116-0.139-0.174c-0.01-0.014-0.019-0.027-0.027-0.042
				c-0.034-0.062-0.066-0.127-0.092-0.193c-0.006-0.016-0.011-0.033-0.015-0.05c-0.019-0.077-0.044-0.166-0.04-0.248
				C103.035,207.051,103.035,206.963,103.065,206.889z"/>
			<path style="fill:#E14A31;" d="M118.623,202.693l0.09-0.089c0.078-0.05,0.162-0.074,0.255-0.075
				c0.078-0.003,0.154,0.01,0.226,0.04c0.082,0.021,0.158,0.058,0.227,0.109c0.072,0.047,0.132,0.105,0.18,0.176
				c0.052,0.058,0.09,0.124,0.114,0.199c0.009,0.045,0.019,0.09,0.028,0.136c0.007,0.089-0.014,0.171-0.064,0.245l-0.09,0.089
				c-0.078,0.05-0.162,0.074-0.255,0.074c-0.079,0.003-0.154-0.01-0.226-0.04c-0.082-0.021-0.158-0.057-0.227-0.109
				c-0.072-0.047-0.132-0.105-0.18-0.176c-0.052-0.058-0.09-0.124-0.114-0.199c-0.009-0.045-0.019-0.09-0.028-0.136
				C118.552,202.848,118.574,202.767,118.623,202.693z"/>
			<path style="fill:#E14A31;" d="M144.046,206.251c0.003-0.02,0.006-0.04,0.012-0.06c0.017-0.06,0.047-0.118,0.075-0.172
				c0.008-0.017,0.018-0.033,0.029-0.047c0.038-0.048,0.084-0.092,0.132-0.131c0.049-0.039,0.115-0.062,0.17-0.086
				c0.019-0.008,0.038-0.015,0.058-0.019c0.068-0.015,0.14-0.027,0.211-0.028c0.078,0,0.158,0.01,0.234,0.022
				c0.101,0.016,0.194,0.059,0.281,0.109c0.039,0.022,0.079,0.043,0.117,0.068c0.029,0.019,0.057,0.041,0.084,0.063
				c0.044,0.037,0.087,0.075,0.131,0.112c0.058,0.056,0.102,0.121,0.132,0.195c0.032,0.067,0.058,0.148,0.061,0.227
				c0.03,0.052,0.059,0.104,0.084,0.163c0.027,0.065,0.039,0.138,0.05,0.206c0.011,0.067,0.002,0.138-0.008,0.205
				c-0.005,0.033-0.014,0.064-0.028,0.095c-0.028,0.065-0.055,0.133-0.1,0.188c-0.06,0.074-0.137,0.152-0.224,0.197
				c-0.12,0.062-0.215,0.095-0.353,0.1c-0.065,0.002-0.133-0.006-0.197-0.018c-0.068-0.013-0.136-0.038-0.2-0.063
				c-0.069-0.028-0.134-0.069-0.196-0.108c-0.064-0.04-0.12-0.095-0.175-0.145c-0.072-0.064-0.13-0.143-0.184-0.222
				c-0.053-0.079-0.093-0.168-0.129-0.255c-0.018-0.043-0.032-0.088-0.042-0.134c-0.019-0.087-0.043-0.179-0.043-0.27
				C144.031,206.38,144.038,206.315,144.046,206.251z"/>
			<path style="fill:#E14A31;" d="M153.767,196.95c0.01-0.037,0.029-0.07,0.046-0.104c0,0,0-0.001,0-0.001
				c-0.008,0.017-0.015,0.034-0.023,0.051c0.012-0.027,0.017-0.056,0.023-0.084c-0.001-0.009,0.001-0.018-0.001-0.028
				c-0.007-0.051,0.003-0.097,0.028-0.14c0.015-0.047,0.044-0.083,0.087-0.11c0.029-0.014,0.059-0.027,0.088-0.041
				c0.053-0.016,0.105-0.019,0.158-0.009c0.039,0,0.077,0.008,0.113,0.024c0.062,0.016,0.118,0.043,0.17,0.082
				c0.033,0.028,0.065,0.056,0.098,0.084c0.055,0.057,0.096,0.122,0.122,0.196c0.011,0.047,0.022,0.094,0.029,0.142
				c0.003,0.016,0.004,0.032,0.005,0.048c0.001,0.015,0,0.029-0.001,0.044c-0.003,0.046-0.005,0.094-0.014,0.139
				c-0.003,0.014-0.006,0.028-0.01,0.042c-0.002,0.007-0.005,0.015-0.007,0.022c-0.001,0.003-0.003,0.006-0.004,0.01
				c-0.001,0.002-0.001,0.003-0.002,0.005c-0.014,0.03-0.027,0.06-0.041,0.089c-0.005,0.007-0.009,0.012-0.015,0.018
				c-0.027,0.027-0.054,0.055-0.082,0.08c-0.012,0.011-0.024,0.02-0.037,0.03c-0.029,0.014-0.058,0.027-0.087,0.04
				c-0.052,0.016-0.104,0.019-0.156,0.009c-0.039,0-0.076-0.008-0.112-0.024c-0.061-0.016-0.117-0.043-0.167-0.081l-0.097-0.083
				l-0.073-0.094c-0.032-0.046-0.051-0.096-0.058-0.15c-0.015-0.048-0.016-0.096-0.002-0.146
				C153.754,196.991,153.762,196.971,153.767,196.95z"/>
		</g>
		<path style="fill:#3C1600;" d="M104.477,158.973c1.594-2.012,3.519-3.902,5.676-5.299c1.015-0.657,2.081-1.222,3.169-1.743
			c1.376-0.272,2.764-0.401,4.103-0.44c4.249-0.124,8.562,0.547,12.732,1.567c4.096,1.002,8.246,2.418,12.088,4.542
			c1.581,0.874,3.028,1.993,4.41,3.268c0.514,0.599,1.005,1.216,1.463,1.851c0.91,1.264,1.757,2.66,2.331,4.143
			c-2.426-1.572-5.298-2.473-8.029-3.304c-3.741-1.139-7.434-2.394-11.251-3.269c-3.746-0.859-7.569-1.369-11.404-1.616
			c-5.388-0.347-10.909-0.061-16.104,1.424C103.917,159.71,104.191,159.334,104.477,158.973z"/>
		<path style="fill:#3C1600;" d="M236.298,158.973c-1.594-2.012-3.519-3.902-5.676-5.299c-1.015-0.657-2.081-1.222-3.169-1.743
			c-1.376-0.272-2.764-0.401-4.103-0.44c-4.249-0.124-8.562,0.547-12.732,1.567c-4.096,1.002-8.246,2.418-12.088,4.542
			c-1.581,0.874-3.028,1.993-4.41,3.268c-0.514,0.599-1.005,1.216-1.462,1.851c-0.91,1.264-1.757,2.66-2.331,4.143
			c2.425-1.572,5.298-2.473,8.029-3.304c3.741-1.139,7.434-2.394,11.251-3.269c3.746-0.859,7.57-1.369,11.404-1.616
			c5.388-0.347,10.909-0.061,16.104,1.424C236.859,159.71,236.585,159.334,236.298,158.973z"/>
		<g>
			<path style="fill:#4A4645;" d="M243.445,163.284c0,0,12.782-0.439,14.893,2.281c2.111,2.72,1.558,11.999-0.166,12.611
				c-1.724,0.611-7.225,1.612-7.225,1.612L243.445,163.284z"/>
			<g>
				<g>
					<path style="fill:#4A4645;" d="M217.354,149.067c-19.162,0-34.695,15.533-34.695,34.695c0,19.161,15.533,34.695,34.695,34.695
						s34.695-15.533,34.695-34.695C252.049,164.6,236.516,149.067,217.354,149.067z M217.354,214.503
						c-16.907,0-30.613-13.706-30.613-30.613c0-16.907,13.706-30.613,30.613-30.613c16.907,0,30.613,13.706,30.613,30.613
						C247.967,200.797,234.261,214.503,217.354,214.503z"/>
					<path style="fill:#4A4645;" d="M125.004,149.067c-19.162,0-34.695,15.533-34.695,34.695c0,19.161,15.534,34.695,34.695,34.695
						s34.695-15.533,34.695-34.695C159.699,164.6,144.165,149.067,125.004,149.067z M125.004,214.503
						c-16.907,0-30.613-13.706-30.613-30.613c0-16.907,13.706-30.613,30.613-30.613s30.613,13.706,30.613,30.613
						C155.617,200.797,141.911,214.503,125.004,214.503z"/>
					<path style="fill:#4A4645;" d="M163.781,174.705c-6.123,1.531-6.633,4.082-6.633,4.082h0.51l1.02,10.715
						c2.551-5.613,7.653-10.205,13.776-9.694c6.123,0.51,11.735,9.694,11.735,9.694l0.51-11.225
						C181.639,173.175,169.903,173.175,163.781,174.705z"/>
				</g>
				<path style="fill:#4A4645;" d="M99.67,163.284c0,0-12.782-0.439-14.893,2.281s-1.558,11.999,0.166,12.611
					c1.724,0.611,7.225,1.612,7.225,1.612L99.67,163.284z"/>
			</g>
		</g>
	</g>
	<g>
		<g>
			<path style="fill:#3C1600;" d="M195.588,58.749L165.77,95.083l3.892,15.374c0,0,4.492-10.803,31.233-7.8
				c26.741,3.003,32.958,15.396,32.958,15.396S222.013,52.074,195.588,58.749z"/>
			<path style="fill:#58280D;" d="M327.348,144.767c-0.3-0.195-0.68-0.04-0.946,0.131c-2.143,1.373-4.658,2.711-7.289,2.483
				c-2.57-0.223-4.622-2.052-6.172-3.973c-4.255-5.27-5.867-12.163-6.448-18.778c-0.64-7.283-1.565-14.543-3.133-21.689
				c-1.548-7.054-3.729-13.944-6.456-20.63c-5.061-12.408-11.998-24.061-21.09-33.944c-8.648-9.4-18.989-18.035-31.611-21.247
				c-4.626-1.177-9.553-1.513-14.304-1.148c-3.213,0.246-6.61,0.809-9.659,2.076c-1.155-2.173-2.566-4.225-4.116-6.108
				c-4.353-5.29-9.926-9.475-16.347-11.895c-12.822-4.834-27.612-3.114-40.519,0.449c-14.552,4.017-27.981,11.173-40.57,19.383
				c-12.81,8.354-24.017,18.764-36.185,27.973c-0.625,0.473-1.257,0.935-1.89,1.396c-4.568,3.726-9.207,7.366-13.994,10.806
				c-5.158,3.706-10.576,7.155-16.435,9.649c-2.573,1.095-5.335,2.035-8.152,2.56c3.718,0.966,7.556,0.763,11.271-0.205
				c-1.097,1.097-2.152,2.236-3.149,3.427c-4.113,4.912-6.862,10.675-8.51,16.844c-1.718,6.434-2.335,13.184-1.725,19.817
				c0.596,6.478,2.288,13.088,5.671,18.699c0.42,0.696,0.876,1.365,1.327,2.041c0.43,0.644,1.634-0.223,1.429-0.868
				c-3.24-10.205-4.022-21.089-1.047-31.418c-0.035,0.51-0.064,1.021-0.079,1.533c-0.105,3.561,0.404,7.128,0.848,10.653
				c0.931,7.384,2.346,15.331-0.139,22.564c-1.943,5.656-6.247,10.014-11.624,12.521c-2.566,1.196-5.326,2.093-8.147,2.417
				c-1.857,0.213-3.818,0.217-5.652-0.233c-0.141-0.103-0.285-0.201-0.428-0.301c0.031,0.063,0.055,0.128,0.087,0.19
				c0.699,1.352,1.684,2.516,2.842,3.493c0.752,0.504,1.532,0.962,2.367,1.321c1.283,0.553,2.629,0.816,4.018,0.912
				c3.573,0.246,7.08-0.664,10.336-2.167c0.014-0.127,0.085-0.248,0.238-0.304c1.438-0.523,2.78-1.259,4.032-2.136
				c3.246-2.272,5.804-5.302,8.369-8.306c-0.348,1.602-0.604,3.23-0.754,4.878c-0.414,4.529-0.014,9.113,1.064,13.528
				c1.139,4.662,2.926,9.228,5.447,13.319c1.428,2.317,3.074,4.445,5.039,6.331c1.896,1.819,3.975,3.492,5.597,5.575
				c0.45,0.577,1.641-0.315,1.203-0.903c-4.316-5.788-5.31-13.611-5-20.639c0.118-2.666,0.464-5.328,1.051-7.933
				c0.077,1.886,0.265,3.772,0.563,5.659c1.177,7.457,3.571,14.807,8.031,20.977c0.781,1.081,1.64,2.143,2.578,3.133
				c1.482,2.464,3.089,4.855,4.771,7.181c2.677,3.701,5.61,7.277,9.038,10.312c-0.011-3.252-0.855-6.431-1.475-9.607
				c-0.681-3.491-0.864-7.059-0.883-10.61c-0.033-5.968,0.288-12.107,2.623-17.679c0.779-1.858,1.826-3.642,3.159-5.167
				c0.282-0.174,0.564-0.35,0.846-0.517c6.963-4.108,14.847-6.207,22.254-9.328c7.292-3.073,13.98-7.53,19.939-12.716
				c3.27-2.846,6.301-5.935,9.123-9.208c-0.118,0.228-0.228,0.46-0.347,0.687c-2.154,4.093-4.545,8.069-7.298,11.791
				c-5.357,7.244-12.074,13.748-20.302,17.611c-2.244,1.053-4.578,1.899-6.981,2.507c-1.253,0.317-2.522,0.57-3.801,0.758
				c-1.299,0.191-2.608,0.212-3.918,0.264c-0.8,0.032-1.564,1.355-0.451,1.472c5.251,0.548,10.565,0.001,15.618-1.519
				c5.025-1.512,9.667-3.915,14.05-6.775c8.362-5.457,15.856-12.285,21.894-20.249c6.607-8.715,11.054-18.701,16.128-28.323
				c2.283-4.33,4.7-8.612,7.357-12.725c2.935-4.543,6.28-8.822,10.243-12.517c0.604-0.563,1.239-1.125,2.01-1.421
				c2.566-0.987,5.747,2.118,6.755,4.197c0.975,2.011,0.89,4.218,1.27,6.352c-0.027,0.114-0.054,0.228-0.076,0.344
				c-0.061,0.325,0.073,0.485,0.271,0.525c0.121,0.288,0.536,0.042,0.664-0.198c0.117-0.092,0.212-0.21,0.256-0.345
				c0.904-2.812,2.903-5.59,5.352-7.248c1.074-0.727,2.399-1.217,3.703-0.924c1.088,0.245,1.879,0.99,2.432,1.931
				c1.246,2.123,1.355,4.882,1.5,7.276c0.217,3.584,0.554,7.161,0.952,10.73c0.934,8.376,2.325,16.714,4.64,24.827
				c2.219,7.775,5.439,15.122,9.288,22.222c1.141,2.105,2.348,4.203,3.65,6.243c2.013,3.859,4.346,7.543,6.969,11.025
				c1.781,2.364,3.684,4.634,5.737,6.767c1.608,1.671,3.066,3.504,4.83,5.018c0.774,0.664,1.617,1.249,2.593,1.568
				c0.225,0.074,0.493-0.025,0.7-0.196c0.327,3.007,0.4,6.036,0.058,9.029c-0.04,0.35,0.326,0.508,0.612,0.474
				c0.362-0.043,0.691-0.319,0.807-0.662c1.454-4.313,2.924-8.625,4.093-13.026c1.052-3.96,1.784-7.966,2.236-12.037
				c0.186-1.671,0.344-3.358,0.454-5.051c0.284,1.947,0.527,3.899,0.718,5.856c0.366,3.739,0.758,7.57,0.402,11.324
				c-0.184,1.944-0.645,3.88-1.686,5.552c-0.243,0.39-0.054,0.911,0.451,0.891c5.167-0.205,9.594-3.476,12.97-7.15
				c3.474-3.781,6.205-8.259,8.421-12.879c-0.54,1.951-1.074,3.904-1.536,5.877c-0.061,0.261,0.02,0.541,0.309,0.611
				c2.996,0.729,5.847-1.89,7.73-3.863c2.689-2.818,4.884-6.126,6.889-9.452c1.614-2.678,3.186-5.436,4.324-8.356
				c0.96-2.463,1.653-5.047,2.104-7.672c0.629,0.62,1.298,1.2,2.012,1.719c4.539,3.302,10.932,4.142,15.619,0.654
				c2.582-1.922,4.359-4.692,6.203-7.276C327.631,145.333,327.61,144.937,327.348,144.767z M243.626,169.605
				c-2.737-6.98-4.562-14.349-5.016-21.845c-0.055-0.904-0.085-1.809-0.101-2.715c1.153,2.661,2.34,5.308,3.505,7.961
				c4.261,9.703,8.471,19.535,10.84,29.903c0.495,2.167,0.924,4.376,1.228,6.603C249.978,183.244,246.363,176.582,243.626,169.605z"
				/>
		</g>
		<g>
			<path style="fill:#834E3D;" d="M205.222,63.009c-1.26-1.724-3.295-2.779-5.26-3.474c-5.45-1.928-11.317-1.277-16.626,0.784
				c-5.417,2.103-10.296,5.605-14.346,9.743c-3.933,4.019-7.232,8.722-10.345,13.388c-6.311,9.462-11.658,19.524-17.928,29.011
				c-3.106,4.7-6.457,9.24-10.229,13.431c-1.913,2.125-3.905,4.178-6.037,6.085c-1.737,1.553-3.559,3.014-5.383,4.463
				c-3.957,3.143-8.067,6.157-12.53,8.548c-4.161,2.229-8.931,4.233-13.752,3.846c-1.093-0.301-2.196-0.566-3.327-0.72
				c-0.254-0.035-0.625,0.352-0.285,0.492c1.329,0.55,2.708,0.844,4.103,0.942c1.724,0.569,3.421,1.247,5.188,1.645
				c3.311,0.745,6.589,0.266,9.847-0.518c6.938-1.67,13.502-4.898,19.421-8.841c3.24-2.159,6.17-4.679,8.941-7.404
				c0.479-0.471-0.244-0.807-0.648-0.411c-2.352,2.313-5.032,4.351-7.74,6.225c-2.897,2.004-5.899,3.831-9.056,5.397
				c-3.11,1.542-6.347,2.851-9.683,3.816c-3.217,0.93-6.614,1.707-9.967,1.162c-1.464-0.238-2.884-0.642-4.301-1.062
				c2.441-0.132,4.883-0.767,7.156-1.6c4.793-1.757,9.211-4.567,13.352-7.514c3.987-2.838,7.906-5.865,11.491-9.199
				c4.114-3.826,7.743-8.121,11.058-12.651c6.693-9.149,12.099-19.123,18.039-28.755c2.945-4.776,6.029-9.477,9.481-13.905
				c1.714-2.199,3.474-4.361,5.478-6.305c2.043-1.982,4.297-3.758,6.7-5.284c4.775-3.031,10.391-5.09,16.112-4.73
				c4.561,0.287,9.569,2.068,11.455,6.573c0.429,1.024,0.75,2.106,1.003,3.186c0.07,0.298,0.579,0.037,0.561-0.202
				C207.006,67.004,206.532,64.799,205.222,63.009z"/>
			<path style="fill:#834E3D;" d="M202.225,37.466c-2.856-5.907-9.632-8.282-15.694-9.325c-6.482-1.116-13.193-1.076-19.725-0.435
				c-8.721,0.856-17.233,3.125-25.273,6.6c-8.138,3.517-15.734,8.25-22.728,13.68c-7.014,5.446-13.572,11.6-19.353,18.347
				c-0.703,0.821-1.397,1.65-2.086,2.483c-0.278,0.337,0.168,0.537,0.42,0.266c5.945-6.4,12.161-12.582,18.954-18.087
				c6.731-5.454,14.012-10.255,21.847-13.975c7.882-3.742,16.267-6.387,24.928-7.538c6.402-0.851,12.99-1.108,19.418-0.415
				c6.209,0.669,12.995,2.311,17.472,6.976c0.505,0.526,0.962,1.093,1.374,1.694C201.909,37.929,202.32,37.663,202.225,37.466z"/>
			<path style="fill:#834E3D;" d="M86.567,100.393c-2.964,3.284-7.722,4.525-12.005,4.588c-4.47,0.066-9.308-1.09-12.872-3.892
				c-1.858-1.462-3.38-3.496-3.884-5.837c-0.12-0.559-1.076-0.068-1.048,0.378c0.17,2.709,0.048,5.452,0.388,8.147
				c0.354,2.811,1.472,5.375,3.362,7.497c1.602,1.799,3.624,3.171,5.935,3.873c2.205,0.67,4.547,0.699,6.81,0.344
				c2.784-0.437,5.416-1.494,7.823-2.942c0.39-0.235,0.347-0.857-0.178-0.614c-4.026,1.865-8.633,3.421-13.099,2.401
				c-4.893-1.117-8.638-5.348-9.52-10.234c-0.335-1.856-0.321-3.735-0.338-5.614c0.598,1.042,1.345,1.993,2.264,2.834
				c1.724,1.577,3.829,2.681,6.033,3.426c4.572,1.545,9.95,1.534,14.504-0.063c2.351-0.824,4.535-2.156,6.113-4.111
				C87.042,100.343,86.737,100.203,86.567,100.393z"/>
			<path style="fill:#834E3D;" d="M264.329,140.741c-0.553-0.126-1.09-0.287-1.614-0.475c-0.001-0.085-0.041-0.165-0.148-0.226
				c-1.123-0.644-2.307-1.17-3.498-1.684c-3.903-2.73-6.804-7.096-8.97-11.149c-1.616-3.024-2.988-6.211-4.07-9.464
				c-1.525-4.582-2.397-9.349-3.051-14.125c-0.66-4.822-1.127-9.669-1.855-14.482c-0.594-3.93-1.304-7.887-2.627-11.645
				c-1.034-2.938-2.365-5.789-3.977-8.455c-1.562-2.584-3.422-5.058-5.762-6.99c-1.952-1.611-4.362-2.807-6.95-2.68
				c-2.981,0.146-5.505,1.94-7.388,4.141c-0.619,0.723-1.18,1.493-1.707,2.284c-0.135,0.202,0.178,0.276,0.294,0.125
				c1.893-2.459,4.428-5.064,7.635-5.591c2.498-0.41,4.909,0.687,6.848,2.184c2.347,1.812,4.187,4.256,5.73,6.764
				c1.635,2.657,2.965,5.506,4.003,8.447c1.268,3.591,1.964,7.359,2.532,11.116c0.718,4.743,1.158,9.523,1.8,14.276
				c0.639,4.733,1.457,9.461,2.882,14.029c1.037,3.323,2.41,6.542,4.013,9.631c1.574,3.034,3.41,5.97,5.68,8.535
				c0.424,0.479,0.868,0.949,1.33,1.404c-1.861-0.935-3.659-1.992-5.345-3.217c-3.463-2.516-5.87-5.841-7.977-9.514
				c-1.171-2.041-2.294-4.112-3.593-6.076c-0.121-0.183-0.48,0.085-0.363,0.272c2.217,3.545,3.746,7.486,6.098,10.945
				c2.569,3.778,6.225,6.506,10.221,8.642c2.223,1.189,4.568,2.296,7.019,2.926c0.119,0.041,0.237,0.083,0.357,0.12
				c0.724,0.223,1.479,0.347,2.23,0.429C264.343,141.266,264.645,140.813,264.329,140.741z"/>
			<path style="fill:#834E3D;" d="M293.798,107.045c-4.817-3.677-7.1-9.345-9.147-14.847c-2.429-6.529-4.536-13.179-7.126-19.648
				c-4.048-10.11-9.764-19.972-19.018-26.128c-4.796-3.19-10.223-5.203-15.803-6.532c-0.241-0.057-0.561,0.367-0.258,0.446
				c5.025,1.3,9.934,3.18,14.332,5.964c4.115,2.604,7.661,5.98,10.591,9.861c7.85,10.397,11.166,23.284,15.75,35.268
				c2.254,5.892,4.88,12.361,10.331,16.006C293.655,107.569,294.021,107.215,293.798,107.045z"/>
			<path style="fill:#834E3D;" d="M289.247,132.273c-1.388-2.339-3.261-4.329-5.558-5.791c-0.052-0.033-0.138,0.05-0.087,0.097
				c3.474,3.173,5.843,7.135,6.806,11.755c0.933,4.482,0.531,9.189-0.618,13.592c-0.645,2.468-1.56,4.836-2.345,7.259
				c-0.204,0.629,0.695,0.453,0.908,0.103c1.246-2.046,2.078-4.343,2.673-6.658c0.597-2.321,0.983-4.709,1.103-7.104
				C292.358,140.957,291.606,136.249,289.247,132.273z"/>
		</g>
	</g>
</g>
</svg>
