<?xml version="1.0" encoding="utf-8"?>
<!-- Generator: Adobe Illustrator 27.5.0, SVG Export Plug-In . SVG Version: 6.00 Build 0)  -->
<svg version="1.1" xmlns="http://www.w3.org/2000/svg" xmlns:xlink="http://www.w3.org/1999/xlink" x="0px" y="0px"
	 viewBox="0 0 330.254 400" style="enable-background:new 0 0 330.254 400;" xml:space="preserve">
<g id="Layer_1">
</g>
<g id="Layer_2">
	<g>
		<g>
			<path style="fill:#3A3F4F;" d="M48.186,289.053c0,0-54.896,40.678-24.091,86.885c0,0-8.294-15.797,2.764-41.863
				c0,0-20.537,51.341,49.367,51.341c69.903,0,225.902,20.931,225.902-35.544c0,0,0.79,20.142-14.218,29.225
				c0,0,33.569-2.764,25.276-76.617c0,0-1.185-12.638-37.124-45.417c-35.939-32.779-20.931-78.197-15.007-101.498
				c5.924-23.301-22.116-95.179-104.657-101.893C73.856,46.959,43.446,157.935,48.186,289.053z"/>
			<path style="opacity:0.7;fill:#3A3F4F;" d="M48.186,289.053c0,0-54.896,40.678-24.091,86.885c0,0-8.294-15.797,2.764-41.863
				c0,0-20.537,51.341,49.367,51.341c69.903,0,225.902,20.931,225.902-35.544c0,0,0.79,20.142-14.218,29.225
				c0,0,33.569-2.764,25.276-76.617c0,0-1.185-12.638-37.124-45.417c-35.939-32.779-20.931-78.197-15.007-101.498
				c5.924-23.301-22.116-95.179-104.657-101.893C73.856,46.959,43.446,157.935,48.186,289.053z"/>
			<path style="opacity:0.7;fill:#3A3F4F;" d="M287.91,379.098c0,0,9.549-0.788,17.203-12.727
				c1.658-9.607,1.693-19.511-0.083-29.079c-2.469-13.301-8.628-25.928-18.585-35.22c-6.988-6.522-15.643-10.667-24.255-14.604
				c-9.526-4.355-19.233-8.367-28.426-13.413c-8.009-4.397-16.184-9.723-21.4-17.41c-5.262-7.755-5.851-17.112-2.76-25.85
				c4.651-13.148,16.873-21.203,27.755-28.865c5.501-3.873,10.929-7.886,16.284-11.973c1.571-13.395,5.152-25.501,7.412-34.39
				c5.924-23.301-22.116-95.179-104.657-101.893c-50.875-4.138-81.945,36.435-97.187,98.876c1.546,6.253,3.519,12.4,5.906,18.383
				c3.685,9.236,9.002,17.602,14.663,25.734c5.451,7.83,11.03,15.55,15.534,23.982c2.755,5.158,4.489,10.882,4.408,16.764
				c-0.158,11.438-6.943,21.38-14.379,29.534c-8.951,9.815-19.486,18.013-29.351,26.859c-4.573,4.101-9.07,8.341-13.019,13.058
				c-4.651,5.558-8.069,11.934-10.623,18.709c-4.692,12.447-6.159,26.172-4.961,39.517c5.433,10.827,18.768,20.328,48.837,20.328
				c69.903,0,225.902,20.931,225.902-35.544C302.128,349.872,302.918,370.014,287.91,379.098z"/>
		</g>
		<g>
			<g>
				<g>
					<g>
						<path style="fill:#F39860;" d="M286.772,367.773c-6.801-37.106-20.694-52.962-63.635-70.906
							c-48.072-20.088-35.938-88.214-35.938-88.214h-48.617c0,0,12.135,68.126-35.937,88.214
							c-42.941,17.944-56.834,33.8-63.635,70.906H286.772z"/>
					</g>
				</g>
				<path style="fill:#F39860;" d="M162.862,261.888c0,0,11.676-1.361,25.573-9.783c-5.012-22.241-1.235-43.453-1.235-43.453
					h-48.617c0,0,3.783,21.245-1.247,43.505c13.859,8.374,25.486,9.73,25.486,9.73H162.862z"/>
				<g>
					<path style="fill:#BE1E2D;" d="M290.854,390c-2.309-26.493-7.738-71.295-18.518-80.376
						c-15.512-13.068-42.105-10.853-45.983-15.725c-3.878-4.873-6.066-3.561-6.066-3.561c-15,43.536-57.3,46.414-57.3,46.414h-0.189
						c0,0-42.3-2.878-57.3-46.414c0,0-2.188-1.311-6.066,3.561c-3.878,4.873-30.471,2.658-45.983,15.725
						c-10.78,9.081-16.209,53.883-18.518,80.376H290.854z"/>
					<path style="opacity:0.3;fill:#BE1E2D;" d="M73.877,390c-0.444-6.63-1.079-13.245-1.899-19.821
						c-0.904-7.247-1.999-14.466-3.473-21.58c-1.552-7.491-3.511-14.9-6.218-21.915c-2.347-6.084-5.284-11.908-9.082-16.847
						C42.587,319.379,37.222,363.706,34.93,390H73.877z"/>
					<path style="opacity:0.3;fill:#BE1E2D;" d="M290.854,390c-2.292-26.294-7.657-70.621-18.276-80.163
						c-3.798,4.939-6.734,10.763-9.082,16.847c-2.706,7.014-4.666,14.423-6.217,21.915c-1.474,7.114-2.569,14.333-3.473,21.58
						c-0.82,6.576-1.455,13.19-1.899,19.821H290.854z"/>
				</g>
			</g>
			<g>
				<g>
					<path style="fill:#F39860;" d="M234.093,132.916c0,102.517-71.231,110.813-71.231,110.813h-0.039
						c0,0-71.231-8.296-71.231-110.813c0,0-2.1-78.121,73.118-78.121C239.927,54.796,234.093,132.916,234.093,132.916z"/>
					<g>
						<g>
							<g>
								<path style="fill:#F39860;" d="M102.965,172.866c-0.079-0.475-3.958-19.31-14.475-18.28
									c-4.052,0.397-5.646,4.139-6.097,7.78c-0.661,5.325,0.238,11.399,2.034,16.445c1.656,4.65,4.526,8.953,8.898,11.427
									c2.426,1.373,7.83,4.014,10.003,0.873c0.782-1.131,0.762-2.677,0.601-3.982
									C102.577,176.235,102.965,172.866,102.965,172.866z"/>
								<path style="fill:#F39860;" d="M92.163,182.803c0,0-5.315-1.05-7.401-8.694c-2.085-7.644,0.268-16.247,4.493-15.423
									c4.226,0.824,9.627,13.719,9.627,13.719s-5.228,1.31-2.319,6.459c0,0-7.279-2.454-6.438-6.886
									c0.841-4.432,5.364-3.861,5.364-3.861s-5.161-8.999-8.147-7.162C84.356,162.792,85.038,180.154,92.163,182.803z"/>
							</g>
						</g>
						<g>
							<g>
								<path style="fill:#F39860;" d="M222.819,172.866c0.079-0.475,3.958-19.31,14.475-18.28c4.052,0.397,5.646,4.139,6.097,7.78
									c0.66,5.325-0.238,11.399-2.034,16.445c-1.656,4.65-4.526,8.953-8.898,11.427c-2.426,1.373-7.83,4.014-10.003,0.873
									c-0.782-1.131-0.762-2.677-0.6-3.982C223.207,176.235,222.819,172.866,222.819,172.866z"/>
								<path style="fill:#F39860;" d="M233.621,182.803c0,0,5.315-1.05,7.401-8.694c2.085-7.644-0.268-16.247-4.493-15.423
									c-4.226,0.824-9.627,13.719-9.627,13.719s5.228,1.31,2.319,6.459c0,0,7.279-2.454,6.438-6.886
									c-0.841-4.432-5.364-3.861-5.364-3.861s5.161-8.999,8.147-7.162C241.427,162.792,240.746,180.154,233.621,182.803z"/>
							</g>
						</g>
					</g>
				</g>
				<g>
					<path style="fill:#C63E48;" d="M162.992,225.357c-11.442-0.139-17.9-5.427-21.029-9.593c-3.21-4.34-3.092-7.559-3.231-7.596
						c16.673-2.044,23.426,3.448,24.241,3.917c-0.049,0-0.099,0-0.148,0c0.815-0.469,7.566-5.963,24.24-3.924
						c-0.139,0.037-0.021,3.256-3.229,7.597c-3.129,4.167-9.584,9.456-21.027,9.599"/>
					<path style="fill:#C63E48;" d="M138.845,208.1c13.653,10.61,34.448,10.54,48.113-0.013c0.182-0.144,0.405-0.013,0.213,0.148
						c-1.617,1.38-3.306,2.709-5.177,3.822c-9.319,5.763-21.874,6.883-32.259,2.886c-4.164-1.544-8.004-3.84-11.117-6.708
						c-0.078-0.072-0.087-0.158-0.021-0.192C138.66,208.011,138.767,208.037,138.845,208.1L138.845,208.1z"/>
					<g>
						<path style="fill:#C63E48;" d="M186.897,208.089c0.2,0.434,1.669-0.132,2.425-0.581c0.759-0.441,1.176-1.154,0.943-1.563
							c-0.233-0.41-1.008-0.375-1.74,0.05C187.8,206.426,186.703,207.663,186.897,208.089z"/>
						<path style="fill:#C63E48;" d="M138.887,208.089c-0.201,0.434-1.669-0.132-2.425-0.581c-0.758-0.441-1.177-1.154-0.943-1.563
							c0.233-0.41,1.008-0.375,1.74,0.05C137.984,206.426,139.08,207.663,138.887,208.089z"/>
					</g>
				</g>
				<g>
					<path style="fill:#F39860;" d="M162.897,183.728L162.897,183.728c-0.002,0-0.004,0-0.005,0c-0.002,0-0.004,0-0.006,0v0
						c-4.748,0.007-13.537,4.38-10.534,10.123c2.79,5.334,9.527,6.716,10.481,6.887l0,0.02c0,0,0.023-0.004,0.059-0.01
						c0.035,0.006,0.058,0.01,0.058,0.01l0-0.02c0.954-0.171,7.691-1.552,10.481-6.887
						C176.434,188.108,167.645,183.735,162.897,183.728z"/>
					<path style="opacity:0.7;fill:#F39860;" d="M171.785,187.226c0.2,1.197-0.17,2.384-0.864,3.423
						c-1.238,1.851-3.551,2.741-5.677,3.008c-2.233,0.28-4.564-0.065-6.582-1.071c-2.017-1.005-3.852-2.942-3.681-5.342
						c0.021-0.29,0.068-0.591,0.136-0.893c-2.651,1.827-4.346,4.473-2.763,7.5c2.79,5.334,9.527,6.716,10.481,6.887l0,0.02
						c0,0,0.023-0.004,0.059-0.01c0.035,0.006,0.059,0.01,0.059,0.01v-0.02c0.953-0.171,7.691-1.552,10.481-6.887
						C174.777,191.277,173.751,188.98,171.785,187.226z"/>
					<g>
						<path style="fill:#754C29;" d="M159.152,196.479c0,0-3.02-3.579-4.25-1.845C153.672,196.367,159.152,196.479,159.152,196.479z
							"/>
						<path style="fill:#754C29;" d="M166.631,196.479c0,0,3.02-3.579,4.25-1.845C172.112,196.367,166.631,196.479,166.631,196.479z
							"/>
					</g>
				</g>
				<g>
					<g>
						<path style="fill:#3A3F4F;" d="M99.528,137.881c0,0,19.091-16.854,46.989,3.052c0,0-0.588-6.482-1.67-8.984
							C144.847,131.949,113.811,116.953,99.528,137.881z"/>
						<g>
							<path style="fill:#FFFFFF;" d="M121.607,172.963c0,0-12.659-1.978-13.789-12.263c-1.13-10.285,9.268-17.462,19.214-16.219
								c9.946,1.243,17.294,9.599,18.536,24.691C145.568,169.173,135.791,175.846,121.607,172.963z"/>
							<path style="fill:#844E3D;" d="M112.781,168.844c4.276,2.546,9.208,3.876,14.14,4.332c1.634,0.176,3.362,0.178,5.005,0.223
								c0.171-0.006,0.205,0.263,0.023,0.284c-0.838,0.107-1.681,0.218-2.528,0.273c-4.247,0.236-8.596-0.43-12.486-2.181
								c-1.555-0.707-3.052-1.559-4.334-2.71C112.476,168.95,112.63,168.737,112.781,168.844L112.781,168.844z"/>
							<path style="fill:#231F20;" d="M142.909,156.637c-3.352-9.129-11.204-14.121-20.933-13.178
								c-3.808,0.324-7.696,1.721-10.603,4.11c-1.292-0.272-2.565-0.872-3.087-2.138c0,0-0.513,2.352,1.246,3.947
								c-0.4,0.475-0.766,0.977-1.093,1.507c-1.923,0.279-4.519,0.223-6.264-1.522c0,0,0.361,3.797,4.88,4.755
								c-0.241,0.929-0.376,1.916-0.388,2.959c-0.02,2.981,0.801,5.941,2.415,8.415c0.076,0.133,0.302,0.039,0.264-0.107
								c-0.519-2.79-0.691-5.536-0.291-8.122c1.168-8.19,10.35-11.834,17.761-11.77c5.635,0.067,10.598,2.897,13.585,7.696
								c1.519,2.336,2.592,4.947,3.401,7.614c0.816,2.68,1.419,5.441,1.615,8.238c0.005,0.078,0.073,0.138,0.151,0.133
								c0.079-0.005,0.138-0.073,0.133-0.151C145.394,164.786,144.43,160.601,142.909,156.637z"/>
							<g>
								
									<ellipse transform="matrix(0.7071 -0.7071 0.7071 0.7071 -74.9358 137.8808)" style="fill:#006F92;" cx="128.969" cy="159.396" rx="12.075" ry="12.075"/>
								<path style="fill:#241F20;" d="M122.045,159.396c0,3.824,3.1,6.923,6.924,6.923c3.824,0,6.924-3.1,6.924-6.923
									c0-3.824-3.1-6.924-6.924-6.924C125.145,152.472,122.045,155.572,122.045,159.396z"/>
								<path style="fill:#FFFFFF;" d="M130.859,156.933c0,2.406,1.95,4.356,4.356,4.356c2.406,0,4.356-1.95,4.356-4.356
									c0-2.406-1.95-4.356-4.356-4.356C132.809,152.577,130.859,154.527,130.859,156.933z"/>
							</g>
						</g>
					</g>
					<g>
						<path style="fill:#3A3F4F;" d="M226.255,137.881c0,0-19.091-16.854-46.989,3.052c0,0,0.588-6.482,1.67-8.984
							C180.937,131.949,211.973,116.953,226.255,137.881z"/>
						<g>
							<path style="fill:#FFFFFF;" d="M204.177,172.963c0,0,12.658-1.978,13.789-12.263c1.13-10.285-9.268-17.462-19.214-16.219
								c-9.946,1.243-17.294,9.599-18.536,24.691C180.215,169.173,189.992,175.846,204.177,172.963z"/>
							<path style="fill:#844E3D;" d="M213.003,168.844c-4.276,2.546-9.208,3.876-14.14,4.332c-1.634,0.176-3.362,0.178-5.005,0.223
								c-0.171-0.006-0.205,0.263-0.023,0.284c0.838,0.107,1.681,0.218,2.528,0.273c4.247,0.236,8.596-0.43,12.486-2.181
								c1.555-0.707,3.051-1.559,4.334-2.71C213.307,168.95,213.153,168.737,213.003,168.844L213.003,168.844z"/>
							<path style="fill:#231F20;" d="M182.875,156.637c3.353-9.129,11.204-14.121,20.933-13.178
								c3.808,0.324,7.696,1.721,10.603,4.11c1.292-0.272,2.565-0.872,3.087-2.138c0,0,0.513,2.352-1.246,3.947
								c0.4,0.475,0.766,0.977,1.093,1.507c1.923,0.279,4.519,0.223,6.264-1.522c0,0-0.361,3.797-4.88,4.755
								c0.241,0.929,0.376,1.916,0.389,2.959c0.02,2.981-0.801,5.941-2.415,8.415c-0.076,0.133-0.302,0.039-0.264-0.107
								c0.519-2.79,0.691-5.536,0.291-8.122c-1.168-8.19-10.35-11.834-17.761-11.77c-5.635,0.067-10.598,2.897-13.585,7.696
								c-1.519,2.336-2.592,4.947-3.401,7.614c-0.816,2.68-1.419,5.441-1.615,8.238c-0.005,0.078-0.073,0.138-0.151,0.133
								c-0.079-0.005-0.138-0.073-0.134-0.151C180.389,164.786,181.354,160.601,182.875,156.637z"/>
							<g>
								
									<ellipse transform="matrix(0.2286 -0.9735 0.9735 0.2286 -3.3477 314.567)" style="fill:#006F92;" cx="196.815" cy="159.396" rx="12.075" ry="12.075"/>
								<path style="fill:#241F20;" d="M203.738,159.396c0,3.824-3.1,6.923-6.924,6.923c-3.824,0-6.924-3.1-6.924-6.923
									c0-3.824,3.1-6.924,6.924-6.924C200.639,152.472,203.738,155.572,203.738,159.396z"/>
								<circle style="fill:#FFFFFF;" cx="190.569" cy="156.933" r="4.356"/>
							</g>
						</g>
					</g>
				</g>
			</g>
			<path style="opacity:0.3;fill:#BE1E2D;" d="M290.854,390c-1.598-18.326-4.688-45.408-10.009-63.372
				c-13.53,33.118-61.21,57.587-117.954,57.587c-56.743,0-104.424-24.469-117.953-57.587c-5.321,17.964-8.412,45.047-10.009,63.372
				H290.854z"/>
		</g>
		<g>
			<path style="fill:#3A3F4F;" d="M201.73,38.088c0,0-24.753-43.394-85.26-22.308S60.547,118.764,60.547,118.764
				s-29.031,11.613-15.28,46.756c0,0-49.812,43.394-14.669,83.121s-14.057,64.48-20.475,44.311c0,0-5.806,8.862,3.056,15.28
				c8.862,6.417,22.003,5.806,31.782-11.001c0,0-27.503,40.033,0,60.507c0,0-11.918-16.196,1.222-39.421
				c13.141-23.225,43.089-41.866,27.503-77.009c-15.585-35.143-12.224-45.228-3.667-57.146c8.557-11.918,17.113-20.862,14.668-34.92
				c0,0,17.655-4.403,35.995-30.894c23.664-34.181,49.57-64.063,74.935-34.42c0,0,6.933,43.989,48.416,48.079
				c0,0,14.022,18.696-12.27,45.28c-26.292,26.584-9.932,68.358,18.988,86.763c28.921,18.404,75.077,43.819,61.639,73.909
				c0,0,35.64-44.696-30.382-90.852c0,0,9.056,2.921,13.73-3.798c4.674-6.719,1.753-14.899-4.674-17.528c0,0,4.09,9.348-4.09,11.685
				c-8.18,2.337-36.224-9.64-25.707-46.156c10.517-36.516,10.388-42.067,1.04-61.055c0,0,9.769-30.089-6.882-58.426
				S213.763,27.427,201.73,38.088z"/>
			<path style="fill:#3A3F4F;" d="M116.735,113.213c-18.34,26.492-35.995,30.894-35.995,30.894
				c2.445,14.057-6.112,23.002-14.669,34.92s-11.918,22.003,3.667,57.146c15.585,35.143-14.363,53.784-27.503,77.009
				c-13.14,23.225-1.222,39.421-1.222,39.421c-1.531-1.14-2.891-2.341-4.095-3.591c1.892,3.147,4.514,6.097,8.044,8.726
				c0,0-11.918-16.196,1.222-39.421c13.14-23.225,43.089-41.866,27.503-77.009c-15.585-35.143-12.224-45.228-3.667-57.146
				s17.113-20.862,14.668-34.92c0,0,17.655-4.403,35.995-30.894c22.509-32.512,47.047-61.133,71.217-38.34
				c-0.162-0.779-0.232-1.214-0.232-1.214C166.305,49.15,140.398,79.032,116.735,113.213z"/>
			<path style="opacity:0.7;fill:#3A3F4F;" d="M247.315,126.159c-41.575-3.009-49.651-46.803-49.651-46.803
				c-20.983-23.268-41.316-8.147-60.302,16.727c18.894-22.526,38.735-34.97,58.256-12.157c0,0,6.933,43.989,48.416,48.079
				c0,0,10.581,14.117-3.891,35.258C260.238,142.496,247.315,126.159,247.315,126.159z"/>
			<path style="fill:#3A3F4F;" d="M257.469,257.982c-27.43-16.468-44.445-53.569-25.791-80.605
				c-26.166,26.588-9.813,68.288,19.075,86.672c28.921,18.404,75.077,43.819,61.639,73.909c0,0,8.177-10.257,9.441-26.016
				C314.796,289.968,280.695,271.926,257.469,257.982z"/>
		</g>
	</g>
</g>
</svg>
